<svg width="445" height="460" viewBox="0 0 445 460" fill="none" xmlns="http://www.w3.org/2000/svg">
<g filter="url(#filter0_f)">
<path d="M170.81 217.723C170.719 223.33 143.135 231.965 143.135 231.965C143.135 231.965 115.829 223.351 115.934 216.836C116.007 212.324 128.351 208.865 143.504 209.109C158.658 209.354 170.883 213.211 170.81 217.723Z" fill="black" fill-opacity="0.7"/>
</g>
<path d="M162.935 196.843C162.935 209.944 143.345 229 143.345 229C143.345 229 123.754 211.135 123.754 196.843C123.754 185.989 132.525 176 143.345 176C154.164 176 162.935 185.989 162.935 196.843Z" fill="#A61D24"/>
<path d="M137.712 194.24C139.219 197.187 141.647 199.604 144.609 201.104L146.911 198.812C147.204 198.521 147.612 198.438 147.978 198.552C149.151 198.938 150.406 199.146 151.715 199.146C151.992 199.146 152.258 199.256 152.455 199.451C152.651 199.646 152.761 199.911 152.761 200.187V203.833C152.761 204.11 152.651 204.375 152.455 204.57C152.258 204.765 151.992 204.875 151.715 204.875C146.996 204.875 142.471 203.009 139.135 199.688C135.798 196.367 133.924 191.863 133.924 187.167C133.924 186.89 134.034 186.625 134.23 186.43C134.427 186.235 134.693 186.125 134.97 186.125H138.633C138.911 186.125 139.177 186.235 139.373 186.43C139.569 186.625 139.68 186.89 139.68 187.167C139.68 188.469 139.889 189.719 140.276 190.885C140.391 191.25 140.308 191.656 140.015 191.948L137.712 194.24Z" fill="white"/>
<g filter="url(#filter1_f)">
<path d="M205.957 102.251C205.303 107.821 177.117 113.655 177.117 113.655C177.117 113.655 150.941 102.357 151.7 95.8853C152.226 91.4031 164.798 89.1945 179.781 90.9524C194.763 92.7102 206.483 97.7688 205.957 102.251Z" fill="black" fill-opacity="0.7"/>
</g>
<path d="M198.416 77.4326C198.416 90.9045 178.208 110.5 178.208 110.5C178.208 110.5 158 92.1292 158 77.4326C158 66.2721 167.047 56 178.208 56C189.368 56 198.416 66.2721 198.416 77.4326Z" fill="#595959"/>
<path d="M177.595 62.5723C178.894 62.5723 180.14 63.0884 181.059 64.0071C181.977 64.9258 182.494 66.1719 182.494 67.4711C182.494 68.7704 181.977 70.0165 181.059 70.9352C180.14 71.8539 178.894 72.37 177.595 72.37C176.295 72.37 175.049 71.8539 174.131 70.9352C173.212 70.0165 172.696 68.7704 172.696 67.4711C172.696 66.1719 173.212 64.9258 174.131 64.0071C175.049 63.0884 176.295 62.5723 177.595 62.5723ZM177.595 74.8195C183.008 74.8195 187.392 77.0117 187.392 79.7183V82.1678H167.797V79.7183C167.797 77.0117 172.181 74.8195 177.595 74.8195Z" fill="white"/>
<rect x="167" y="83" width="22" height="16" rx="3" fill="#595959"/>
<path d="M176.667 85L175.333 86.3333V87.6667H173.333C172.567 87.6667 172.08 88.3333 172 89L171.333 95.6667C171.253 96.3333 171.693 97 172.667 97H183.333C184.307 97 184.747 96.3333 184.667 95.6667L184 89C183.92 88.3333 183.373 87.6667 182.667 87.6667H180.667V86.3333L179.333 85H176.667ZM176.667 86.3333H179.333V87.6667H176.667V86.3333ZM177.333 89.6667H178.667V91.6667H180.667V93H178.667V95H177.333V93H175.333V91.6667H177.333V89.6667Z" fill="#F0F0F0"/>
<g filter="url(#filter2_f)">
<path d="M141.957 52.251C141.303 57.8206 113.117 63.6553 113.117 63.6553C113.117 63.6553 86.9409 52.3567 87.7002 45.8853C88.226 41.4031 100.798 39.1945 115.781 40.9524C130.763 42.7102 142.483 47.7688 141.957 52.251Z" fill="black" fill-opacity="0.7"/>
</g>
<path d="M134.416 27.4326C134.416 40.9045 114.208 60.5 114.208 60.5C114.208 60.5 94 42.1292 94 27.4326C94 16.2721 103.047 6 114.208 6C125.368 6 134.416 16.2721 134.416 27.4326Z" fill="#434343"/>
<path d="M113.595 12.5723C114.894 12.5723 116.14 13.0884 117.059 14.0071C117.977 14.9258 118.494 16.1719 118.494 17.4711C118.494 18.7704 117.977 20.0165 117.059 20.9352C116.14 21.8539 114.894 22.37 113.595 22.37C112.295 22.37 111.049 21.8539 110.131 20.9352C109.212 20.0165 108.696 18.7704 108.696 17.4711C108.696 16.1719 109.212 14.9258 110.131 14.0071C111.049 13.0884 112.295 12.5723 113.595 12.5723ZM113.595 24.8195C119.008 24.8195 123.392 27.0117 123.392 29.7183V32.1678H103.797V29.7183C103.797 27.0117 108.181 24.8195 113.595 24.8195Z" fill="white"/>
<rect x="85" y="33" width="58" height="16" rx="3" fill="#434343"/>
<path d="M93.0007 35.666C92.0282 35.666 91.0956 36.0523 90.4079 36.74C89.7203 37.4276 89.334 38.3602 89.334 39.3327C89.334 39.666 89.394 39.9993 89.4807 40.3327H92.2007L93.0473 38.086C93.2473 37.5527 94.034 37.4993 94.2873 38.086L95.6673 41.666L96.0607 40.7193C96.1473 40.4993 96.3807 40.3327 96.6673 40.3327H102.521C102.607 39.9993 102.667 39.666 102.667 39.3327C102.667 38.3602 102.281 37.4276 101.593 36.74C100.906 36.0523 99.9731 35.666 99.0007 35.666C97.7607 35.666 96.6673 36.286 96.0007 37.226C95.334 36.286 94.2407 35.666 93.0007 35.666ZM90.0007 41.3327C89.8238 41.3327 89.6543 41.4029 89.5292 41.5279C89.4042 41.653 89.334 41.8225 89.334 41.9993C89.334 42.1762 89.4042 42.3457 89.5292 42.4708C89.6543 42.5958 89.8238 42.666 90.0007 42.666H91.6273L95.334 46.3327C96.0007 46.9327 96.0007 46.9327 96.6673 46.3327L100.374 42.666H102.001C102.177 42.666 102.347 42.5958 102.472 42.4708C102.597 42.3457 102.667 42.1762 102.667 41.9993C102.667 41.8225 102.597 41.653 102.472 41.5279C102.347 41.4029 102.177 41.3327 102.001 41.3327H96.934L96.314 42.866C96.0473 43.5393 95.2807 43.446 95.034 42.886L93.6673 39.3327L93.0273 40.886C92.9273 41.1393 92.7007 41.3327 92.4007 41.3327H90.0007Z" fill="white"/>
<path d="M117.772 40.4667C117.619 40.2667 117.432 40.0933 117.259 39.92C116.812 39.52 116.306 39.2333 115.879 38.8133C114.886 37.84 114.666 36.2333 115.299 35C114.666 35.1533 114.112 35.5 113.639 35.88C111.912 37.2667 111.232 39.7133 112.046 41.8133C112.072 41.88 112.099 41.9467 112.099 42.0333C112.099 42.18 111.999 42.3133 111.866 42.3667C111.712 42.4333 111.552 42.3933 111.426 42.2867C111.386 42.2533 111.359 42.22 111.332 42.1733C110.579 41.22 110.459 39.8533 110.966 38.76C109.852 39.6667 109.246 41.2 109.332 42.6467C109.372 42.98 109.412 43.3133 109.526 43.6467C109.619 44.0467 109.799 44.4467 109.999 44.8C110.719 45.9533 111.966 46.78 113.306 46.9467C114.732 47.1267 116.259 46.8667 117.352 45.88C118.572 44.7733 118.999 43 118.372 41.48L118.286 41.3067C118.146 41 117.772 40.4667 117.772 40.4667ZM115.666 44.6667C115.479 44.8267 115.172 45 114.932 45.0667C114.186 45.3333 113.439 44.96 112.999 44.52C113.792 44.3333 114.266 43.7467 114.406 43.1533C114.519 42.62 114.306 42.18 114.219 41.6667C114.139 41.1733 114.152 40.7533 114.332 40.2933C114.459 40.5467 114.592 40.8 114.752 41C115.266 41.6667 116.072 41.96 116.246 42.8667C116.272 42.96 116.286 43.0533 116.286 43.1533C116.306 43.7 116.066 44.3 115.666 44.6667Z" fill="white"/>
<path d="M130.667 35L129.333 36.3333V37.6667H127.333C126.567 37.6667 126.08 38.3333 126 39L125.333 45.6667C125.253 46.3333 125.693 47 126.667 47H137.333C138.307 47 138.747 46.3333 138.667 45.6667L138 39C137.92 38.3333 137.373 37.6667 136.667 37.6667H134.667V36.3333L133.333 35H130.667ZM130.667 36.3333H133.333V37.6667H130.667V36.3333ZM131.333 39.6667H132.667V41.6667H134.667V43H132.667V45H131.333V43H129.333V41.6667H131.333V39.6667Z" fill="white"/>
<g filter="url(#filter3_f)">
<path d="M119.957 263.251C119.303 268.821 91.1171 274.655 91.1171 274.655C91.1171 274.655 64.9409 263.357 65.7002 256.885C66.226 252.403 78.7981 250.195 93.7807 251.952C108.763 253.71 120.483 258.769 119.957 263.251Z" fill="black" fill-opacity="0.7"/>
</g>
<path d="M112.416 238.433C112.416 251.904 92.2079 271.5 92.2079 271.5C92.2079 271.5 72 253.129 72 238.433C72 227.272 81.0474 217 92.2079 217C103.368 217 112.416 227.272 112.416 238.433Z" fill="#595959"/>
<path d="M91.5946 223.572C92.8939 223.572 94.1399 224.088 95.0587 225.007C95.9774 225.926 96.4935 227.172 96.4935 228.471C96.4935 229.77 95.9774 231.016 95.0587 231.935C94.1399 232.854 92.8939 233.37 91.5946 233.37C90.2954 233.37 89.0493 232.854 88.1306 231.935C87.2119 231.016 86.6958 229.77 86.6958 228.471C86.6958 227.172 87.2119 225.926 88.1306 225.007C89.0493 224.088 90.2954 223.572 91.5946 223.572ZM91.5946 235.819C97.0079 235.819 101.392 238.012 101.392 240.718V243.168H81.7969V240.718C81.7969 238.012 86.1814 235.819 91.5946 235.819Z" fill="white"/>
<rect x="81" y="244" width="22" height="16" rx="3" fill="#595959"/>
<path d="M95.7724 251.467C95.6191 251.267 95.4324 251.093 95.2591 250.92C94.8124 250.52 94.3057 250.233 93.8791 249.813C92.8857 248.84 92.6657 247.233 93.2991 246C92.6657 246.153 92.1124 246.5 91.6391 246.88C89.9124 248.267 89.2324 250.713 90.0457 252.813C90.0724 252.88 90.0991 252.947 90.0991 253.033C90.0991 253.18 89.9991 253.313 89.8657 253.367C89.7124 253.433 89.5524 253.393 89.4257 253.287C89.3857 253.253 89.3591 253.22 89.3324 253.173C88.5791 252.22 88.4591 250.853 88.9657 249.76C87.8524 250.667 87.2457 252.2 87.3324 253.647C87.3724 253.98 87.4124 254.313 87.5257 254.647C87.6191 255.047 87.7991 255.447 87.9991 255.8C88.7191 256.953 89.9657 257.78 91.3057 257.947C92.7324 258.127 94.2591 257.867 95.3524 256.88C96.5724 255.773 96.9991 254 96.3724 252.48L96.2857 252.307C96.1457 252 95.7724 251.467 95.7724 251.467ZM93.6657 255.667C93.4791 255.827 93.1724 256 92.9324 256.067C92.1857 256.333 91.4391 255.96 90.9991 255.52C91.7924 255.333 92.2657 254.747 92.4057 254.153C92.5191 253.62 92.3057 253.18 92.2191 252.667C92.1391 252.173 92.1524 251.753 92.3324 251.293C92.4591 251.547 92.5924 251.8 92.7524 252C93.2657 252.667 94.0724 252.96 94.2457 253.867C94.2724 253.96 94.2857 254.053 94.2857 254.153C94.3057 254.7 94.0657 255.3 93.6657 255.667Z" fill="#F0F0F0"/>
<g filter="url(#filter4_f)">
<path d="M139.957 347.251C139.303 352.821 111.117 358.655 111.117 358.655C111.117 358.655 84.9409 347.357 85.7002 340.885C86.226 336.403 98.7981 334.195 113.781 335.952C128.763 337.71 140.483 342.769 139.957 347.251Z" fill="black" fill-opacity="0.7"/>
</g>
<path d="M132.416 322.433C132.416 335.904 112.208 355.5 112.208 355.5C112.208 355.5 92 337.129 92 322.433C92 311.272 101.047 301 112.208 301C123.368 301 132.416 311.272 132.416 322.433Z" fill="#434343"/>
<path d="M111.595 307.572C112.894 307.572 114.14 308.088 115.059 309.007C115.977 309.926 116.494 311.172 116.494 312.471C116.494 313.77 115.977 315.016 115.059 315.935C114.14 316.854 112.894 317.37 111.595 317.37C110.295 317.37 109.049 316.854 108.131 315.935C107.212 315.016 106.696 313.77 106.696 312.471C106.696 311.172 107.212 309.926 108.131 309.007C109.049 308.088 110.295 307.572 111.595 307.572ZM111.595 319.819C117.008 319.819 121.392 322.012 121.392 324.718V327.168H101.797V324.718C101.797 322.012 106.181 319.819 111.595 319.819Z" fill="white"/>
<rect x="83" y="328" width="58" height="16" rx="3" fill="#434343"/>
<path d="M91.0007 330.666C90.0282 330.666 89.0956 331.052 88.4079 331.74C87.7203 332.428 87.334 333.36 87.334 334.333C87.334 334.666 87.394 334.999 87.4807 335.333H90.2007L91.0473 333.086C91.2473 332.553 92.034 332.499 92.2873 333.086L93.6673 336.666L94.0607 335.719C94.1473 335.499 94.3807 335.333 94.6673 335.333H100.521C100.607 334.999 100.667 334.666 100.667 334.333C100.667 333.36 100.281 332.428 99.5934 331.74C98.9057 331.052 97.9731 330.666 97.0007 330.666C95.7607 330.666 94.6673 331.286 94.0007 332.226C93.334 331.286 92.2407 330.666 91.0007 330.666ZM88.0007 336.333C87.8238 336.333 87.6543 336.403 87.5292 336.528C87.4042 336.653 87.334 336.823 87.334 336.999C87.334 337.176 87.4042 337.346 87.5292 337.471C87.6543 337.596 87.8238 337.666 88.0007 337.666H89.6273L93.334 341.333C94.0007 341.933 94.0007 341.933 94.6673 341.333L98.374 337.666H100.001C100.177 337.666 100.347 337.596 100.472 337.471C100.597 337.346 100.667 337.176 100.667 336.999C100.667 336.823 100.597 336.653 100.472 336.528C100.347 336.403 100.177 336.333 100.001 336.333H94.934L94.314 337.866C94.0473 338.539 93.2807 338.446 93.034 337.886L91.6673 334.333L91.0273 335.886C90.9273 336.139 90.7007 336.333 90.4007 336.333H88.0007Z" fill="white"/>
<path d="M115.772 335.467C115.619 335.267 115.432 335.093 115.259 334.92C114.812 334.52 114.306 334.233 113.879 333.813C112.886 332.84 112.666 331.233 113.299 330C112.666 330.153 112.112 330.5 111.639 330.88C109.912 332.267 109.232 334.713 110.046 336.813C110.072 336.88 110.099 336.947 110.099 337.033C110.099 337.18 109.999 337.313 109.866 337.367C109.712 337.433 109.552 337.393 109.426 337.287C109.386 337.253 109.359 337.22 109.332 337.173C108.579 336.22 108.459 334.853 108.966 333.76C107.852 334.667 107.246 336.2 107.332 337.647C107.372 337.98 107.412 338.313 107.526 338.647C107.619 339.047 107.799 339.447 107.999 339.8C108.719 340.953 109.966 341.78 111.306 341.947C112.732 342.127 114.259 341.867 115.352 340.88C116.572 339.773 116.999 338 116.372 336.48L116.286 336.307C116.146 336 115.772 335.467 115.772 335.467ZM113.666 339.667C113.479 339.827 113.172 340 112.932 340.067C112.186 340.333 111.439 339.96 110.999 339.52C111.792 339.333 112.266 338.747 112.406 338.153C112.519 337.62 112.306 337.18 112.219 336.667C112.139 336.173 112.152 335.753 112.332 335.293C112.459 335.547 112.592 335.8 112.752 336C113.266 336.667 114.072 336.96 114.246 337.867C114.272 337.96 114.286 338.053 114.286 338.153C114.306 338.7 114.066 339.3 113.666 339.667Z" fill="white"/>
<path d="M128.667 330L127.333 331.333V332.667H125.333C124.567 332.667 124.08 333.333 124 334L123.333 340.667C123.253 341.333 123.693 342 124.667 342H135.333C136.307 342 136.747 341.333 136.667 340.667L136 334C135.92 333.333 135.373 332.667 134.667 332.667H132.667V331.333L131.333 330H128.667ZM128.667 331.333H131.333V332.667H128.667V331.333ZM129.333 334.667H130.667V336.667H132.667V338H130.667V340H129.333V338H127.333V336.667H129.333V334.667Z" fill="white"/>
<g filter="url(#filter5_f)">
<path d="M117.957 434.251C117.303 439.821 89.1171 445.655 89.1171 445.655C89.1171 445.655 62.9409 434.357 63.7002 427.885C64.226 423.403 76.7981 421.195 91.7807 422.952C106.763 424.71 118.483 429.769 117.957 434.251Z" fill="black" fill-opacity="0.7"/>
</g>
<path d="M110.416 409.433C110.416 422.904 90.2079 442.5 90.2079 442.5C90.2079 442.5 70 424.129 70 409.433C70 398.272 79.0474 388 90.2079 388C101.368 388 110.416 398.272 110.416 409.433Z" fill="#434343"/>
<path d="M89.5946 394.572C90.8939 394.572 92.1399 395.088 93.0587 396.007C93.9774 396.926 94.4935 398.172 94.4935 399.471C94.4935 400.77 93.9774 402.016 93.0587 402.935C92.1399 403.854 90.8939 404.37 89.5946 404.37C88.2954 404.37 87.0493 403.854 86.1306 402.935C85.2119 402.016 84.6958 400.77 84.6958 399.471C84.6958 398.172 85.2119 396.926 86.1306 396.007C87.0493 395.088 88.2954 394.572 89.5946 394.572ZM89.5946 406.819C95.0079 406.819 99.3924 409.012 99.3924 411.718V414.168H79.7969V411.718C79.7969 409.012 84.1814 406.819 89.5946 406.819Z" fill="white"/>
<rect x="70" y="415" width="40" height="16" rx="3" fill="#434343"/>
<path d="M78.0007 417.666C77.0282 417.666 76.0956 418.052 75.4079 418.74C74.7203 419.428 74.334 420.36 74.334 421.333C74.334 421.666 74.394 421.999 74.4807 422.333H77.2007L78.0473 420.086C78.2473 419.553 79.034 419.499 79.2873 420.086L80.6673 423.666L81.0607 422.719C81.1473 422.499 81.3807 422.333 81.6673 422.333H87.5207C87.6073 421.999 87.6673 421.666 87.6673 421.333C87.6673 420.36 87.281 419.428 86.5934 418.74C85.9057 418.052 84.9731 417.666 84.0007 417.666C82.7607 417.666 81.6673 418.286 81.0007 419.226C80.334 418.286 79.2407 417.666 78.0007 417.666ZM75.0007 423.333C74.8238 423.333 74.6543 423.403 74.5292 423.528C74.4042 423.653 74.334 423.823 74.334 423.999C74.334 424.176 74.4042 424.346 74.5292 424.471C74.6543 424.596 74.8238 424.666 75.0007 424.666H76.6273L80.334 428.333C81.0007 428.933 81.0007 428.933 81.6673 428.333L85.374 424.666H87.0007C87.1775 424.666 87.347 424.596 87.4721 424.471C87.5971 424.346 87.6673 424.176 87.6673 423.999C87.6673 423.823 87.5971 423.653 87.4721 423.528C87.347 423.403 87.1775 423.333 87.0007 423.333H81.934L81.314 424.866C81.0473 425.539 80.2807 425.446 80.034 424.886L78.6673 421.333L78.0273 422.886C77.9273 423.139 77.7007 423.333 77.4007 423.333H75.0007Z" fill="#D9D9D9"/>
<path d="M102.772 422.467C102.619 422.267 102.432 422.093 102.259 421.92C101.812 421.52 101.306 421.233 100.879 420.813C99.8857 419.84 99.6657 418.233 100.299 417C99.6657 417.153 99.1124 417.5 98.6391 417.88C96.9124 419.267 96.2324 421.713 97.0457 423.813C97.0724 423.88 97.0991 423.947 97.0991 424.033C97.0991 424.18 96.9991 424.313 96.8657 424.367C96.7124 424.433 96.5524 424.393 96.4257 424.287C96.3857 424.253 96.3591 424.22 96.3324 424.173C95.5791 423.22 95.4591 421.853 95.9657 420.76C94.8524 421.667 94.2457 423.2 94.3324 424.647C94.3724 424.98 94.4124 425.313 94.5257 425.647C94.6191 426.047 94.7991 426.447 94.9991 426.8C95.7191 427.953 96.9657 428.78 98.3057 428.947C99.7324 429.127 101.259 428.867 102.352 427.88C103.572 426.773 103.999 425 103.372 423.48L103.286 423.307C103.146 423 102.772 422.467 102.772 422.467ZM100.666 426.667C100.479 426.827 100.172 427 99.9324 427.067C99.1857 427.333 98.4391 426.96 97.9991 426.52C98.7924 426.333 99.2657 425.747 99.4057 425.153C99.5191 424.62 99.3057 424.18 99.2191 423.667C99.1391 423.173 99.1524 422.753 99.3324 422.293C99.4591 422.547 99.5924 422.8 99.7524 423C100.266 423.667 101.072 423.96 101.246 424.867C101.272 424.96 101.286 425.053 101.286 425.153C101.306 425.7 101.066 426.3 100.666 426.667Z" fill="#D9D9D9"/>
<g filter="url(#filter6_f)">
<path d="M430.957 396.251C430.303 401.821 402.117 407.655 402.117 407.655C402.117 407.655 375.941 396.357 376.7 389.885C377.226 385.403 389.798 383.195 404.781 384.952C419.763 386.71 431.483 391.769 430.957 396.251Z" fill="black" fill-opacity="0.7"/>
</g>
<path d="M423.416 371.433C423.416 384.904 403.208 404.5 403.208 404.5C403.208 404.5 383 386.129 383 371.433C383 360.272 392.047 350 403.208 350C414.368 350 423.416 360.272 423.416 371.433Z" fill="#434343"/>
<path d="M402.595 356.572C403.894 356.572 405.14 357.088 406.059 358.007C406.977 358.926 407.494 360.172 407.494 361.471C407.494 362.77 406.977 364.016 406.059 364.935C405.14 365.854 403.894 366.37 402.595 366.37C401.295 366.37 400.049 365.854 399.131 364.935C398.212 364.016 397.696 362.77 397.696 361.471C397.696 360.172 398.212 358.926 399.131 358.007C400.049 357.088 401.295 356.572 402.595 356.572ZM402.595 368.819C408.008 368.819 412.392 371.012 412.392 373.718V376.168H392.797V373.718C392.797 371.012 397.181 368.819 402.595 368.819Z" fill="white"/>
<rect x="374" y="377" width="58" height="16" rx="3" fill="#434343"/>
<path d="M382.001 379.666C381.028 379.666 380.096 380.052 379.408 380.74C378.72 381.428 378.334 382.36 378.334 383.333C378.334 383.666 378.394 383.999 378.481 384.333H381.201L382.047 382.086C382.247 381.553 383.034 381.499 383.287 382.086L384.667 385.666L385.061 384.719C385.147 384.499 385.381 384.333 385.667 384.333H391.521C391.607 383.999 391.667 383.666 391.667 383.333C391.667 382.36 391.281 381.428 390.593 380.74C389.906 380.052 388.973 379.666 388.001 379.666C386.761 379.666 385.667 380.286 385.001 381.226C384.334 380.286 383.241 379.666 382.001 379.666ZM379.001 385.333C378.824 385.333 378.654 385.403 378.529 385.528C378.404 385.653 378.334 385.823 378.334 385.999C378.334 386.176 378.404 386.346 378.529 386.471C378.654 386.596 378.824 386.666 379.001 386.666H380.627L384.334 390.333C385.001 390.933 385.001 390.933 385.667 390.333L389.374 386.666H391.001C391.177 386.666 391.347 386.596 391.472 386.471C391.597 386.346 391.667 386.176 391.667 385.999C391.667 385.823 391.597 385.653 391.472 385.528C391.347 385.403 391.177 385.333 391.001 385.333H385.934L385.314 386.866C385.047 387.539 384.281 387.446 384.034 386.886L382.667 383.333L382.027 384.886C381.927 385.139 381.701 385.333 381.401 385.333H379.001Z" fill="#D9D9D9"/>
<path d="M406.772 384.467C406.619 384.267 406.432 384.093 406.259 383.92C405.812 383.52 405.306 383.233 404.879 382.813C403.886 381.84 403.666 380.233 404.299 379C403.666 379.153 403.112 379.5 402.639 379.88C400.912 381.267 400.232 383.713 401.046 385.813C401.072 385.88 401.099 385.947 401.099 386.033C401.099 386.18 400.999 386.313 400.866 386.367C400.712 386.433 400.552 386.393 400.426 386.287C400.386 386.253 400.359 386.22 400.332 386.173C399.579 385.22 399.459 383.853 399.966 382.76C398.852 383.667 398.246 385.2 398.332 386.647C398.372 386.98 398.412 387.313 398.526 387.647C398.619 388.047 398.799 388.447 398.999 388.8C399.719 389.953 400.966 390.78 402.306 390.947C403.732 391.127 405.259 390.867 406.352 389.88C407.572 388.773 407.999 387 407.372 385.48L407.286 385.307C407.146 385 406.772 384.467 406.772 384.467ZM404.666 388.667C404.479 388.827 404.172 389 403.932 389.067C403.186 389.333 402.439 388.96 401.999 388.52C402.792 388.333 403.266 387.747 403.406 387.153C403.519 386.62 403.306 386.18 403.219 385.667C403.139 385.173 403.152 384.753 403.332 384.293C403.459 384.547 403.592 384.8 403.752 385C404.266 385.667 405.072 385.96 405.246 386.867C405.272 386.96 405.286 387.053 405.286 387.153C405.306 387.7 405.066 388.3 404.666 388.667Z" fill="#D9D9D9"/>
<path d="M419.667 379L418.333 380.333V381.667H416.333C415.567 381.667 415.08 382.333 415 383L414.333 389.667C414.253 390.333 414.693 391 415.667 391H426.333C427.307 391 427.747 390.333 427.667 389.667L427 383C426.92 382.333 426.373 381.667 425.667 381.667H423.667V380.333L422.333 379H419.667ZM419.667 380.333H422.333V381.667H419.667V380.333ZM420.333 383.667H421.667V385.667H423.667V387H421.667V389H420.333V387H418.333V385.667H420.333V383.667Z" fill="#D9D9D9"/>
<g filter="url(#filter7_f)">
<path d="M258.957 374.251C258.303 379.821 230.117 385.655 230.117 385.655C230.117 385.655 203.941 374.357 204.7 367.885C205.226 363.403 217.798 361.195 232.781 362.952C247.763 364.71 259.483 369.769 258.957 374.251Z" fill="black" fill-opacity="0.7"/>
</g>
<path d="M251.416 349.433C251.416 362.904 231.208 382.5 231.208 382.5C231.208 382.5 211 364.129 211 349.433C211 338.272 220.047 328 231.208 328C242.368 328 251.416 338.272 251.416 349.433Z" fill="#595959"/>
<path d="M230.595 334.572C231.894 334.572 233.14 335.088 234.059 336.007C234.977 336.926 235.494 338.172 235.494 339.471C235.494 340.77 234.977 342.016 234.059 342.935C233.14 343.854 231.894 344.37 230.595 344.37C229.295 344.37 228.049 343.854 227.131 342.935C226.212 342.016 225.696 340.77 225.696 339.471C225.696 338.172 226.212 336.926 227.131 336.007C228.049 335.088 229.295 334.572 230.595 334.572ZM230.595 346.819C236.008 346.819 240.392 349.012 240.392 351.718V354.168H220.797V351.718C220.797 349.012 225.181 346.819 230.595 346.819Z" fill="white"/>
<rect x="211" y="355" width="40" height="16" rx="3" fill="#595959"/>
<path d="M225.772 362.467C225.619 362.267 225.432 362.093 225.259 361.92C224.812 361.52 224.306 361.233 223.879 360.813C222.886 359.84 222.666 358.233 223.299 357C222.666 357.153 222.112 357.5 221.639 357.88C219.912 359.267 219.232 361.713 220.046 363.813C220.072 363.88 220.099 363.947 220.099 364.033C220.099 364.18 219.999 364.313 219.866 364.367C219.712 364.433 219.552 364.393 219.426 364.287C219.386 364.253 219.359 364.22 219.332 364.173C218.579 363.22 218.459 361.853 218.966 360.76C217.852 361.667 217.246 363.2 217.332 364.647C217.372 364.98 217.412 365.313 217.526 365.647C217.619 366.047 217.799 366.447 217.999 366.8C218.719 367.953 219.966 368.78 221.306 368.947C222.732 369.127 224.259 368.867 225.352 367.88C226.572 366.773 226.999 365 226.372 363.48L226.286 363.307C226.146 363 225.772 362.467 225.772 362.467ZM223.666 366.667C223.479 366.827 223.172 367 222.932 367.067C222.186 367.333 221.439 366.96 220.999 366.52C221.792 366.333 222.266 365.747 222.406 365.153C222.519 364.62 222.306 364.18 222.219 363.667C222.139 363.173 222.152 362.753 222.332 362.293C222.459 362.547 222.592 362.8 222.752 363C223.266 363.667 224.072 363.96 224.246 364.867C224.272 364.96 224.286 365.053 224.286 365.153C224.306 365.7 224.066 366.3 223.666 366.667Z" fill="#F0F0F0"/>
<path d="M238.667 357L237.333 358.333V359.667H235.333C234.567 359.667 234.08 360.333 234 361L233.333 367.667C233.253 368.333 233.693 369 234.667 369H245.333C246.307 369 246.747 368.333 246.667 367.667L246 361C245.92 360.333 245.373 359.667 244.667 359.667H242.667V358.333L241.333 357H238.667ZM238.667 358.333H241.333V359.667H238.667V358.333ZM239.333 361.667H240.667V363.667H242.667V365H240.667V367H239.333V365H237.333V363.667H239.333V361.667Z" fill="#F0F0F0"/>
<circle cx="361" cy="118" r="16" fill="#A61D24"/>
<path d="M365.5 110.83C363.76 110.83 362.09 111.64 361 112.9C359.91 111.64 358.24 110.83 356.5 110.83C353.42 110.83 351 113.24 351 116.33C351 120.1 354.4 123.19 359.55 127.86L361 129.17L362.45 127.86C367.6 123.19 371 120.1 371 116.33C371 113.24 368.58 110.83 365.5 110.83ZM361 125.83V121.83H358L361 114.83V118.83H364" fill="white"/>
<path d="M352.4 146.632L350.992 142.784C350.923 142.613 350.851 142.411 350.776 142.176C350.701 141.941 350.627 141.688 350.552 141.416C350.483 141.688 350.411 141.944 350.336 142.184C350.261 142.419 350.189 142.624 350.12 142.8L348.72 146.632H352.4ZM356.2 151H354.536C354.349 151 354.197 150.955 354.08 150.864C353.963 150.768 353.875 150.651 353.816 150.512L352.952 148.152H348.16L347.296 150.512C347.253 150.635 347.171 150.747 347.048 150.848C346.925 150.949 346.773 151 346.592 151H344.912L349.464 139.432H351.656L356.2 151ZM359.557 141.144V144.352H363.605V146.008H359.557V149.28H364.693V151H357.397V139.432H364.693V141.144H359.557ZM376.873 145.216C376.873 146.064 376.731 146.843 376.449 147.552C376.166 148.261 375.769 148.872 375.257 149.384C374.745 149.896 374.129 150.293 373.409 150.576C372.689 150.859 371.889 151 371.009 151H366.601V139.432H371.009C371.889 139.432 372.689 139.576 373.409 139.864C374.129 140.147 374.745 140.544 375.257 141.056C375.769 141.563 376.166 142.171 376.449 142.88C376.731 143.589 376.873 144.368 376.873 145.216ZM374.665 145.216C374.665 144.581 374.579 144.013 374.409 143.512C374.243 143.005 374.001 142.579 373.681 142.232C373.366 141.88 372.982 141.611 372.529 141.424C372.081 141.237 371.574 141.144 371.009 141.144H368.761V149.288H371.009C371.574 149.288 372.081 149.195 372.529 149.008C372.982 148.821 373.366 148.555 373.681 148.208C374.001 147.856 374.243 147.429 374.409 146.928C374.579 146.421 374.665 145.851 374.665 145.216Z" fill="white"/>
<circle cx="220" cy="196" r="16" fill="#A61D24"/>
<path d="M226 202.5C226.398 202.5 226.779 202.342 227.061 202.061C227.342 201.779 227.5 201.398 227.5 201C227.5 200.602 227.342 200.221 227.061 199.939C226.779 199.658 226.398 199.5 226 199.5C225.602 199.5 225.221 199.658 224.939 199.939C224.658 200.221 224.5 200.602 224.5 201C224.5 201.398 224.658 201.779 224.939 202.061C225.221 202.342 225.602 202.5 226 202.5ZM227.5 193.5H225V196H229.46L227.5 193.5ZM214 202.5C214.398 202.5 214.779 202.342 215.061 202.061C215.342 201.779 215.5 201.398 215.5 201C215.5 200.602 215.342 200.221 215.061 199.939C214.779 199.658 214.398 199.5 214 199.5C213.602 199.5 213.221 199.658 212.939 199.939C212.658 200.221 212.5 200.602 212.5 201C212.5 201.398 212.658 201.779 212.939 202.061C213.221 202.342 213.602 202.5 214 202.5ZM228 192L231 196V201H229C229 201.796 228.684 202.559 228.121 203.121C227.559 203.684 226.796 204 226 204C225.204 204 224.441 203.684 223.879 203.121C223.316 202.559 223 201.796 223 201H217C217 201.796 216.684 202.559 216.121 203.121C215.559 203.684 214.796 204 214 204C213.204 204 212.441 203.684 211.879 203.121C211.316 202.559 211 201.796 211 201H209V190C209 188.89 209.89 188 211 188H225V192H228ZM216 190V193H213V195H216V198H218V195H221V193H218V190H216Z" fill="white"/>
<path d="M207.448 219.144V222.352H211.496V224.008H207.448V227.28H212.584V229H205.288V217.432H212.584V219.144H207.448ZM227.035 217.432V229H225.139V221.528C225.139 221.229 225.155 220.907 225.187 220.56L221.691 227.128C221.526 227.443 221.272 227.6 220.931 227.6H220.627C220.286 227.6 220.032 227.443 219.867 227.128L216.331 220.536C216.347 220.712 216.36 220.885 216.371 221.056C216.382 221.227 216.387 221.384 216.387 221.528V229H214.491V217.432H216.115C216.211 217.432 216.294 217.435 216.363 217.44C216.432 217.445 216.494 217.459 216.547 217.48C216.606 217.501 216.656 217.536 216.699 217.584C216.747 217.632 216.792 217.696 216.835 217.776L220.299 224.2C220.39 224.371 220.472 224.547 220.547 224.728C220.627 224.909 220.704 225.096 220.779 225.288C220.854 225.091 220.931 224.901 221.011 224.72C221.091 224.533 221.176 224.355 221.267 224.184L224.683 217.776C224.726 217.696 224.771 217.632 224.819 217.584C224.867 217.536 224.918 217.501 224.971 217.48C225.03 217.459 225.094 217.445 225.163 217.44C225.232 217.435 225.315 217.432 225.411 217.432H227.035ZM235.776 219.536C235.712 219.648 235.643 219.731 235.568 219.784C235.499 219.832 235.411 219.856 235.304 219.856C235.192 219.856 235.069 219.816 234.936 219.736C234.808 219.651 234.653 219.557 234.472 219.456C234.291 219.355 234.077 219.264 233.832 219.184C233.592 219.099 233.307 219.056 232.976 219.056C232.677 219.056 232.416 219.093 232.192 219.168C231.968 219.237 231.779 219.336 231.624 219.464C231.475 219.592 231.363 219.747 231.288 219.928C231.213 220.104 231.176 220.299 231.176 220.512C231.176 220.784 231.251 221.011 231.4 221.192C231.555 221.373 231.757 221.528 232.008 221.656C232.259 221.784 232.544 221.899 232.864 222C233.184 222.101 233.512 222.211 233.848 222.328C234.184 222.44 234.512 222.573 234.832 222.728C235.152 222.877 235.437 223.069 235.688 223.304C235.939 223.533 236.139 223.816 236.288 224.152C236.443 224.488 236.52 224.896 236.52 225.376C236.52 225.899 236.429 226.389 236.248 226.848C236.072 227.301 235.811 227.699 235.464 228.04C235.123 228.376 234.704 228.643 234.208 228.84C233.712 229.032 233.144 229.128 232.504 229.128C232.136 229.128 231.773 229.091 231.416 229.016C231.059 228.947 230.715 228.845 230.384 228.712C230.059 228.579 229.752 228.419 229.464 228.232C229.176 228.045 228.92 227.837 228.696 227.608L229.328 226.576C229.381 226.501 229.451 226.44 229.536 226.392C229.621 226.339 229.712 226.312 229.808 226.312C229.941 226.312 230.085 226.368 230.24 226.48C230.395 226.587 230.579 226.707 230.792 226.84C231.005 226.973 231.253 227.096 231.536 227.208C231.824 227.315 232.168 227.368 232.568 227.368C233.181 227.368 233.656 227.224 233.992 226.936C234.328 226.643 234.496 226.224 234.496 225.68C234.496 225.376 234.419 225.128 234.264 224.936C234.115 224.744 233.915 224.584 233.664 224.456C233.413 224.323 233.128 224.211 232.808 224.12C232.488 224.029 232.163 223.931 231.832 223.824C231.501 223.717 231.176 223.589 230.856 223.44C230.536 223.291 230.251 223.096 230 222.856C229.749 222.616 229.547 222.317 229.392 221.96C229.243 221.597 229.168 221.152 229.168 220.624C229.168 220.203 229.251 219.792 229.416 219.392C229.587 218.992 229.832 218.637 230.152 218.328C230.472 218.019 230.867 217.771 231.336 217.584C231.805 217.397 232.344 217.304 232.952 217.304C233.635 217.304 234.264 217.411 234.84 217.624C235.416 217.837 235.907 218.136 236.312 218.52L235.776 219.536Z" fill="white"/>
<circle cx="17" cy="17" r="16" fill="#A61D24"/>
<path d="M21.5 9.83008C19.76 9.83008 18.09 10.6401 17 11.9001C15.91 10.6401 14.24 9.83008 12.5 9.83008C9.42 9.83008 7 12.2401 7 15.3301C7 19.1001 10.4 22.1901 15.55 26.8601L17 28.1701L18.45 26.8601C23.6 22.1901 27 19.1001 27 15.3301C27 12.2401 24.58 9.83008 21.5 9.83008ZM17 24.8301V20.8301H14L17 13.8301V17.8301H20" fill="white"/>
<path d="M8.4 45.632L6.992 41.784C6.92267 41.6133 6.85067 41.4107 6.776 41.176C6.70133 40.9413 6.62667 40.688 6.552 40.416C6.48267 40.688 6.41067 40.944 6.336 41.184C6.26133 41.4187 6.18933 41.624 6.12 41.8L4.72 45.632H8.4ZM12.2 50H10.536C10.3493 50 10.1973 49.9547 10.08 49.864C9.96267 49.768 9.87467 49.6507 9.816 49.512L8.952 47.152H4.16L3.296 49.512C3.25333 49.6347 3.17067 49.7467 3.048 49.848C2.92533 49.9493 2.77333 50 2.592 50H0.912L5.464 38.432H7.656L12.2 50ZM15.5574 40.144V43.352H19.6054V45.008H15.5574V48.28H20.6934V50H13.3974V38.432H20.6934V40.144H15.5574ZM32.8725 44.216C32.8725 45.064 32.7312 45.8427 32.4485 46.552C32.1658 47.2613 31.7685 47.872 31.2565 48.384C30.7445 48.896 30.1285 49.2933 29.4085 49.576C28.6885 49.8587 27.8885 50 27.0085 50H22.6005V38.432H27.0085C27.8885 38.432 28.6885 38.576 29.4085 38.864C30.1285 39.1467 30.7445 39.544 31.2565 40.056C31.7685 40.5627 32.1658 41.1707 32.4485 41.88C32.7312 42.5893 32.8725 43.368 32.8725 44.216ZM30.6645 44.216C30.6645 43.5813 30.5792 43.0133 30.4085 42.512C30.2432 42.0053 30.0005 41.5787 29.6805 41.232C29.3658 40.88 28.9818 40.6107 28.5285 40.424C28.0805 40.2373 27.5738 40.144 27.0085 40.144H24.7605V48.288H27.0085C27.5738 48.288 28.0805 48.1947 28.5285 48.008C28.9818 47.8213 29.3658 47.5547 29.6805 47.208C30.0005 46.856 30.2432 46.4293 30.4085 45.928C30.5792 45.4213 30.6645 44.8507 30.6645 44.216Z" fill="white"/>
<g filter="url(#filter8_f)">
<path d="M191.957 223.251C191.303 228.821 163.117 234.655 163.117 234.655C163.117 234.655 136.941 223.357 137.7 216.885C138.226 212.403 150.798 210.195 165.781 211.952C180.763 213.71 192.483 218.769 191.957 223.251Z" fill="black" fill-opacity="0.7"/>
</g>
<path d="M184.416 198.433C184.416 211.904 164.208 231.5 164.208 231.5C164.208 231.5 144 213.129 144 198.433C144 187.272 153.047 177 164.208 177C175.368 177 184.416 187.272 184.416 198.433Z" fill="#00CA8E"/>
<path d="M163.595 183.572C164.894 183.572 166.14 184.088 167.059 185.007C167.977 185.926 168.494 187.172 168.494 188.471C168.494 189.77 167.977 191.016 167.059 191.935C166.14 192.854 164.894 193.37 163.595 193.37C162.295 193.37 161.049 192.854 160.131 191.935C159.212 191.016 158.696 189.77 158.696 188.471C158.696 187.172 159.212 185.926 160.131 185.007C161.049 184.088 162.295 183.572 163.595 183.572ZM163.595 195.819C169.008 195.819 173.392 198.012 173.392 200.718V203.168H153.797V200.718C153.797 198.012 158.181 195.819 163.595 195.819Z" fill="white"/>
<rect x="135" y="204" width="58" height="16" rx="3" fill="#00CA8E"/>
<path d="M143.001 206.666C142.028 206.666 141.096 207.052 140.408 207.74C139.72 208.428 139.334 209.36 139.334 210.333C139.334 210.666 139.394 210.999 139.481 211.333H142.201L143.047 209.086C143.247 208.553 144.034 208.499 144.287 209.086L145.667 212.666L146.061 211.719C146.147 211.499 146.381 211.333 146.667 211.333H152.521C152.607 210.999 152.667 210.666 152.667 210.333C152.667 209.36 152.281 208.428 151.593 207.74C150.906 207.052 149.973 206.666 149.001 206.666C147.761 206.666 146.667 207.286 146.001 208.226C145.334 207.286 144.241 206.666 143.001 206.666ZM140.001 212.333C139.824 212.333 139.654 212.403 139.529 212.528C139.404 212.653 139.334 212.823 139.334 212.999C139.334 213.176 139.404 213.346 139.529 213.471C139.654 213.596 139.824 213.666 140.001 213.666H141.627L145.334 217.333C146.001 217.933 146.001 217.933 146.667 217.333L150.374 213.666H152.001C152.177 213.666 152.347 213.596 152.472 213.471C152.597 213.346 152.667 213.176 152.667 212.999C152.667 212.823 152.597 212.653 152.472 212.528C152.347 212.403 152.177 212.333 152.001 212.333H146.934L146.314 213.866C146.047 214.539 145.281 214.446 145.034 213.886L143.667 210.333L143.027 211.886C142.927 212.139 142.701 212.333 142.401 212.333H140.001Z" fill="white"/>
<path d="M167.772 211.467C167.619 211.267 167.432 211.093 167.259 210.92C166.812 210.52 166.306 210.233 165.879 209.813C164.886 208.84 164.666 207.233 165.299 206C164.666 206.153 164.112 206.5 163.639 206.88C161.912 208.267 161.232 210.713 162.046 212.813C162.072 212.88 162.099 212.947 162.099 213.033C162.099 213.18 161.999 213.313 161.866 213.367C161.712 213.433 161.552 213.393 161.426 213.287C161.386 213.253 161.359 213.22 161.332 213.173C160.579 212.22 160.459 210.853 160.966 209.76C159.852 210.667 159.246 212.2 159.332 213.647C159.372 213.98 159.412 214.313 159.526 214.647C159.619 215.047 159.799 215.447 159.999 215.8C160.719 216.953 161.966 217.78 163.306 217.947C164.732 218.127 166.259 217.867 167.352 216.88C168.572 215.773 168.999 214 168.372 212.48L168.286 212.307C168.146 212 167.772 211.467 167.772 211.467ZM165.666 215.667C165.479 215.827 165.172 216 164.932 216.067C164.186 216.333 163.439 215.96 162.999 215.52C163.792 215.333 164.266 214.747 164.406 214.153C164.519 213.62 164.306 213.18 164.219 212.667C164.139 212.173 164.152 211.753 164.332 211.293C164.459 211.547 164.592 211.8 164.752 212C165.266 212.667 166.072 212.96 166.246 213.867C166.272 213.96 166.286 214.053 166.286 214.153C166.306 214.7 166.066 215.3 165.666 215.667Z" fill="white"/>
<path d="M180.667 206L179.333 207.333V208.667H177.333C176.567 208.667 176.08 209.333 176 210L175.333 216.667C175.253 217.333 175.693 218 176.667 218H187.333C188.307 218 188.747 217.333 188.667 216.667L188 210C187.92 209.333 187.373 208.667 186.667 208.667H184.667V207.333L183.333 206H180.667ZM180.667 207.333H183.333V208.667H180.667V207.333ZM181.333 210.667H182.667V212.667H184.667V214H182.667V216H181.333V214H179.333V212.667H181.333V210.667Z" fill="white"/>
<circle cx="164" cy="159" r="12" fill="#A61D24"/>
<path d="M166.775 153.924C165.47 153.924 164.218 154.531 163.4 155.476C162.583 154.531 161.33 153.924 160.025 153.924C157.715 153.924 155.9 155.731 155.9 158.049C155.9 160.876 158.45 163.194 162.313 166.696L163.4 167.679L164.488 166.696C168.35 163.194 170.9 160.876 170.9 158.049C170.9 155.731 169.085 153.924 166.775 153.924ZM163.4 165.174V162.174H161.15L163.4 156.924V159.924H165.65" fill="white"/>
<path d="M144.619 243.512L141.035 255H139.499L136.699 246.48C136.635 246.309 136.579 246.104 136.531 245.864C136.472 246.109 136.416 246.315 136.363 246.48L133.531 255H132.003L128.419 243.512H129.843C129.992 243.512 130.118 243.549 130.219 243.624C130.32 243.693 130.387 243.789 130.419 243.912L132.683 251.6C132.726 251.749 132.763 251.912 132.795 252.088C132.832 252.264 132.87 252.448 132.907 252.64C132.944 252.448 132.982 252.264 133.019 252.088C133.062 251.912 133.11 251.749 133.163 251.6L135.755 243.912C135.787 243.805 135.854 243.712 135.955 243.632C136.062 243.552 136.187 243.512 136.331 243.512H136.819C136.968 243.512 137.091 243.549 137.187 243.624C137.283 243.699 137.352 243.795 137.395 243.912L139.979 251.6C140.075 251.893 140.16 252.227 140.235 252.6C140.299 252.232 140.368 251.899 140.443 251.6L142.715 243.912C142.742 243.805 142.808 243.712 142.915 243.632C143.022 243.552 143.147 243.512 143.291 243.512H144.619ZM147.494 246.872V255H145.934V246.872H147.494ZM147.79 244.36C147.79 244.504 147.76 244.643 147.702 244.776C147.643 244.904 147.563 245.019 147.462 245.12C147.366 245.216 147.251 245.293 147.118 245.352C146.984 245.405 146.846 245.432 146.702 245.432C146.558 245.432 146.422 245.405 146.294 245.352C146.166 245.293 146.051 245.216 145.95 245.12C145.854 245.019 145.776 244.904 145.718 244.776C145.664 244.643 145.638 244.504 145.638 244.36C145.638 244.211 145.664 244.072 145.718 243.944C145.776 243.811 145.854 243.696 145.95 243.6C146.051 243.499 146.166 243.421 146.294 243.368C146.422 243.309 146.558 243.28 146.702 243.28C146.846 243.28 146.984 243.309 147.118 243.368C147.251 243.421 147.366 243.499 147.462 243.6C147.563 243.696 147.643 243.811 147.702 243.944C147.76 244.072 147.79 244.211 147.79 244.36ZM151.352 243.192V255H149.784V243.192H151.352ZM155.18 243.192V255H153.612V243.192H155.18ZM159.041 246.872V255H157.481V246.872H159.041ZM159.337 244.36C159.337 244.504 159.307 244.643 159.249 244.776C159.19 244.904 159.11 245.019 159.009 245.12C158.913 245.216 158.798 245.293 158.664 245.352C158.531 245.405 158.393 245.432 158.249 245.432C158.105 245.432 157.969 245.405 157.841 245.352C157.713 245.293 157.598 245.216 157.497 245.12C157.401 245.019 157.323 244.904 157.265 244.776C157.211 244.643 157.185 244.504 157.185 244.36C157.185 244.211 157.211 244.072 157.265 243.944C157.323 243.811 157.401 243.696 157.497 243.6C157.598 243.499 157.713 243.421 157.841 243.368C157.969 243.309 158.105 243.28 158.249 243.28C158.393 243.28 158.531 243.309 158.664 243.368C158.798 243.421 158.913 243.499 159.009 243.6C159.11 243.696 159.19 243.811 159.249 243.944C159.307 244.072 159.337 244.211 159.337 244.36ZM165.667 251.392C165.032 251.413 164.494 251.464 164.051 251.544C163.608 251.619 163.248 251.72 162.971 251.848C162.694 251.976 162.494 252.128 162.371 252.304C162.248 252.475 162.187 252.667 162.187 252.88C162.187 253.083 162.219 253.259 162.283 253.408C162.352 253.552 162.443 253.672 162.555 253.768C162.672 253.859 162.808 253.925 162.963 253.968C163.118 254.011 163.286 254.032 163.467 254.032C163.707 254.032 163.926 254.008 164.123 253.96C164.326 253.912 164.515 253.845 164.691 253.76C164.867 253.669 165.035 253.56 165.195 253.432C165.355 253.304 165.512 253.157 165.667 252.992V251.392ZM161.091 248.008C161.544 247.576 162.035 247.253 162.563 247.04C163.096 246.827 163.68 246.72 164.315 246.72C164.779 246.72 165.19 246.797 165.547 246.952C165.904 247.101 166.206 247.312 166.451 247.584C166.696 247.856 166.88 248.181 167.003 248.56C167.131 248.939 167.195 249.357 167.195 249.816V255H166.499C166.344 255 166.227 254.976 166.147 254.928C166.067 254.875 166.003 254.779 165.955 254.64L165.787 253.928C165.579 254.12 165.374 254.291 165.171 254.44C164.968 254.584 164.755 254.709 164.531 254.816C164.312 254.917 164.078 254.995 163.827 255.048C163.576 255.101 163.299 255.128 162.995 255.128C162.675 255.128 162.374 255.085 162.091 255C161.814 254.909 161.571 254.773 161.363 254.592C161.155 254.411 160.99 254.184 160.867 253.912C160.75 253.64 160.691 253.323 160.691 252.96C160.691 252.64 160.776 252.333 160.947 252.04C161.123 251.741 161.406 251.475 161.795 251.24C162.19 251.005 162.702 250.813 163.331 250.664C163.966 250.515 164.744 250.429 165.667 250.408V249.816C165.667 249.203 165.536 248.744 165.275 248.44C165.014 248.136 164.63 247.984 164.123 247.984C163.782 247.984 163.494 248.027 163.259 248.112C163.03 248.197 162.83 248.293 162.659 248.4C162.494 248.501 162.347 248.595 162.219 248.68C162.096 248.765 161.968 248.808 161.835 248.808C161.728 248.808 161.635 248.779 161.555 248.72C161.48 248.661 161.419 248.592 161.371 248.512L161.091 248.008ZM169.284 255V246.872H170.22C170.438 246.872 170.574 246.976 170.628 247.184L170.74 247.96C171.038 247.603 171.369 247.312 171.732 247.088C172.1 246.859 172.529 246.744 173.02 246.744C173.558 246.744 173.996 246.893 174.332 247.192C174.668 247.485 174.913 247.885 175.068 248.392C175.185 248.104 175.337 247.856 175.524 247.648C175.71 247.44 175.918 247.269 176.148 247.136C176.377 247.003 176.62 246.904 176.876 246.84C177.137 246.776 177.401 246.744 177.668 246.744C178.1 246.744 178.484 246.813 178.82 246.952C179.161 247.085 179.449 247.283 179.684 247.544C179.918 247.805 180.097 248.128 180.22 248.512C180.342 248.896 180.404 249.333 180.404 249.824V255H178.836V249.824C178.836 249.216 178.702 248.757 178.436 248.448C178.174 248.139 177.79 247.984 177.284 247.984C177.06 247.984 176.846 248.024 176.644 248.104C176.441 248.179 176.262 248.293 176.108 248.448C175.958 248.603 175.838 248.795 175.748 249.024C175.662 249.253 175.62 249.52 175.62 249.824V255H174.052V249.824C174.052 249.195 173.926 248.731 173.676 248.432C173.425 248.133 173.057 247.984 172.572 247.984C172.236 247.984 171.924 248.072 171.636 248.248C171.348 248.424 171.084 248.664 170.844 248.968V255H169.284ZM196.277 243.512V255H195.413C195.28 255 195.168 254.976 195.077 254.928C194.992 254.88 194.904 254.803 194.813 254.696L188.325 246.304C188.336 246.448 188.344 246.589 188.349 246.728C188.36 246.867 188.365 246.997 188.365 247.12V255H186.869V243.512H187.749C187.898 243.512 188.01 243.531 188.085 243.568C188.16 243.6 188.242 243.677 188.333 243.8L194.837 252.2C194.821 252.045 194.808 251.896 194.797 251.752C194.792 251.603 194.789 251.464 194.789 251.336V243.512H196.277ZM201.39 250.944C201.667 250.944 201.91 250.907 202.118 250.832C202.331 250.757 202.507 250.653 202.646 250.52C202.79 250.381 202.896 250.216 202.966 250.024C203.04 249.832 203.078 249.621 203.078 249.392C203.078 248.923 202.934 248.549 202.646 248.272C202.363 247.989 201.944 247.848 201.39 247.848C200.84 247.848 200.422 247.989 200.134 248.272C199.851 248.549 199.71 248.923 199.71 249.392C199.71 249.621 199.744 249.832 199.814 250.024C199.888 250.211 199.995 250.373 200.134 250.512C200.278 250.645 200.454 250.752 200.662 250.832C200.875 250.907 201.118 250.944 201.39 250.944ZM203.878 255.424C203.878 255.232 203.824 255.08 203.718 254.968C203.611 254.851 203.464 254.76 203.278 254.696C203.096 254.627 202.883 254.579 202.638 254.552C202.392 254.52 202.134 254.496 201.862 254.48C201.595 254.464 201.32 254.451 201.038 254.44C200.755 254.424 200.483 254.397 200.222 254.36C199.944 254.499 199.715 254.667 199.534 254.864C199.358 255.061 199.27 255.293 199.27 255.56C199.27 255.731 199.312 255.891 199.398 256.04C199.488 256.189 199.624 256.317 199.806 256.424C199.992 256.536 200.224 256.621 200.502 256.68C200.784 256.744 201.12 256.776 201.51 256.776C201.894 256.776 202.232 256.741 202.526 256.672C202.819 256.608 203.064 256.515 203.262 256.392C203.464 256.275 203.616 256.133 203.718 255.968C203.824 255.803 203.878 255.621 203.878 255.424ZM205.462 247.176V247.76C205.462 247.952 205.342 248.072 205.102 248.12L204.23 248.248C204.304 248.413 204.363 248.589 204.406 248.776C204.448 248.957 204.47 249.149 204.47 249.352C204.47 249.752 204.392 250.115 204.238 250.44C204.083 250.76 203.87 251.035 203.598 251.264C203.326 251.493 203 251.669 202.622 251.792C202.248 251.915 201.838 251.976 201.39 251.976C201.022 251.976 200.678 251.936 200.358 251.856C200.198 251.952 200.075 252.059 199.99 252.176C199.91 252.288 199.87 252.4 199.87 252.512C199.87 252.699 199.947 252.837 200.102 252.928C200.262 253.019 200.467 253.085 200.718 253.128C200.974 253.165 201.264 253.189 201.59 253.2C201.92 253.211 202.254 253.229 202.59 253.256C202.931 253.277 203.264 253.32 203.59 253.384C203.92 253.443 204.211 253.541 204.462 253.68C204.718 253.813 204.923 254 205.078 254.24C205.238 254.475 205.318 254.781 205.318 255.16C205.318 255.512 205.23 255.853 205.054 256.184C204.883 256.515 204.632 256.808 204.302 257.064C203.971 257.32 203.568 257.525 203.094 257.68C202.619 257.835 202.08 257.912 201.477 257.912C200.875 257.912 200.35 257.853 199.902 257.736C199.459 257.619 199.088 257.461 198.79 257.264C198.496 257.067 198.275 256.837 198.126 256.576C197.982 256.315 197.91 256.043 197.91 255.76C197.91 255.365 198.032 255.032 198.278 254.76C198.523 254.483 198.862 254.267 199.294 254.112C199.059 254.005 198.872 253.861 198.734 253.68C198.595 253.493 198.526 253.248 198.526 252.944C198.526 252.827 198.547 252.707 198.59 252.584C198.632 252.456 198.696 252.331 198.782 252.208C198.872 252.08 198.982 251.96 199.11 251.848C199.243 251.736 199.395 251.635 199.566 251.544C199.166 251.32 198.851 251.024 198.622 250.656C198.392 250.283 198.278 249.848 198.278 249.352C198.278 248.952 198.355 248.592 198.51 248.272C198.664 247.952 198.878 247.677 199.15 247.448C199.427 247.219 199.755 247.043 200.134 246.92C200.518 246.797 200.936 246.736 201.39 246.736C202.094 246.736 202.699 246.883 203.206 247.176H205.462Z" fill="white"/>
<path d="M78.0054 364.424C78.4374 364.424 78.816 364.368 79.1414 364.256C79.472 364.144 79.7467 363.987 79.9654 363.784C80.1894 363.576 80.3574 363.331 80.4694 363.048C80.5814 362.76 80.6374 362.443 80.6374 362.096C80.6374 361.397 80.4187 360.848 79.9814 360.448C79.5494 360.048 78.8907 359.848 78.0054 359.848H76.2294V364.424H78.0054ZM78.0054 358.512C78.7414 358.512 79.3814 358.597 79.9254 358.768C80.4694 358.939 80.92 359.181 81.2774 359.496C81.6347 359.805 81.8987 360.181 82.0694 360.624C82.2454 361.067 82.3334 361.557 82.3334 362.096C82.3334 362.635 82.24 363.131 82.0534 363.584C81.8667 364.032 81.592 364.419 81.2294 364.744C80.8667 365.069 80.4134 365.323 79.8694 365.504C79.3307 365.68 78.7094 365.768 78.0054 365.768H76.2294V370H74.5254V358.512H78.0054ZM88.0109 366.392C87.3762 366.413 86.8375 366.464 86.3949 366.544C85.9522 366.619 85.5922 366.72 85.3149 366.848C85.0375 366.976 84.8375 367.128 84.7149 367.304C84.5922 367.475 84.5309 367.667 84.5309 367.88C84.5309 368.083 84.5629 368.259 84.6269 368.408C84.6962 368.552 84.7869 368.672 84.8989 368.768C85.0162 368.859 85.1522 368.925 85.3069 368.968C85.4615 369.011 85.6295 369.032 85.8109 369.032C86.0509 369.032 86.2695 369.008 86.4669 368.96C86.6695 368.912 86.8589 368.845 87.0349 368.76C87.2109 368.669 87.3789 368.56 87.5389 368.432C87.6989 368.304 87.8562 368.157 88.0109 367.992V366.392ZM83.4349 363.008C83.8882 362.576 84.3789 362.253 84.9069 362.04C85.4402 361.827 86.0242 361.72 86.6589 361.72C87.1229 361.72 87.5335 361.797 87.8909 361.952C88.2482 362.101 88.5495 362.312 88.7949 362.584C89.0402 362.856 89.2242 363.181 89.3469 363.56C89.4749 363.939 89.5389 364.357 89.5389 364.816V370H88.8429C88.6882 370 88.5709 369.976 88.4909 369.928C88.4109 369.875 88.3469 369.779 88.2989 369.64L88.1309 368.928C87.9229 369.12 87.7175 369.291 87.5149 369.44C87.3122 369.584 87.0989 369.709 86.8749 369.816C86.6562 369.917 86.4215 369.995 86.1709 370.048C85.9202 370.101 85.6429 370.128 85.3389 370.128C85.0189 370.128 84.7175 370.085 84.4349 370C84.1575 369.909 83.9149 369.773 83.7069 369.592C83.4989 369.411 83.3335 369.184 83.2109 368.912C83.0935 368.64 83.0349 368.323 83.0349 367.96C83.0349 367.64 83.1202 367.333 83.2909 367.04C83.4669 366.741 83.7495 366.475 84.1389 366.24C84.5335 366.005 85.0455 365.813 85.6749 365.664C86.3095 365.515 87.0882 365.429 88.0109 365.408V364.816C88.0109 364.203 87.8802 363.744 87.6189 363.44C87.3575 363.136 86.9735 362.984 86.4669 362.984C86.1255 362.984 85.8375 363.027 85.6029 363.112C85.3735 363.197 85.1735 363.293 85.0029 363.4C84.8375 363.501 84.6909 363.595 84.5629 363.68C84.4402 363.765 84.3122 363.808 84.1789 363.808C84.0722 363.808 83.9789 363.779 83.8989 363.72C83.8242 363.661 83.7629 363.592 83.7149 363.512L83.4349 363.008ZM94.0619 370.128C93.4059 370.128 92.8992 369.944 92.5419 369.576C92.1899 369.208 92.0139 368.683 92.0139 368V363.136H91.0699C90.9792 363.136 90.9019 363.109 90.8379 363.056C90.7792 362.997 90.7499 362.912 90.7499 362.8V362.168L92.0699 361.984L92.4219 359.56C92.4432 359.469 92.4832 359.4 92.5419 359.352C92.6059 359.299 92.6859 359.272 92.7819 359.272H93.5739V362H95.8779V363.136H93.5739V367.896C93.5739 368.216 93.6512 368.456 93.8059 368.616C93.9659 368.771 94.1685 368.848 94.4139 368.848C94.5579 368.848 94.6805 368.829 94.7819 368.792C94.8885 368.755 94.9792 368.715 95.0539 368.672C95.1285 368.624 95.1925 368.581 95.2459 368.544C95.2992 368.507 95.3472 368.488 95.3899 368.488C95.4432 368.488 95.4832 368.501 95.5099 368.528C95.5419 368.549 95.5739 368.587 95.6059 368.64L96.0699 369.392C95.8139 369.627 95.5099 369.808 95.1579 369.936C94.8059 370.064 94.4405 370.128 94.0619 370.128ZM98.7868 363.432C99.0481 362.899 99.3628 362.48 99.7308 362.176C100.099 361.872 100.541 361.72 101.059 361.72C101.235 361.72 101.4 361.741 101.555 361.784C101.715 361.821 101.853 361.88 101.971 361.96L101.867 363.136C101.829 363.28 101.741 363.352 101.603 363.352C101.528 363.352 101.416 363.339 101.267 363.312C101.117 363.28 100.957 363.264 100.787 363.264C100.536 363.264 100.315 363.301 100.123 363.376C99.9308 363.445 99.7574 363.552 99.6028 363.696C99.4534 363.835 99.3201 364.008 99.2028 364.216C99.0854 364.419 98.9761 364.651 98.8748 364.912V370H97.3148V361.872H98.2108C98.3814 361.872 98.4961 361.904 98.5548 361.968C98.6188 362.027 98.6641 362.133 98.6908 362.288L98.7868 363.432ZM104.806 361.872V370H103.246V361.872H104.806ZM105.102 359.36C105.102 359.504 105.073 359.643 105.014 359.776C104.955 359.904 104.875 360.019 104.774 360.12C104.678 360.216 104.563 360.293 104.43 360.352C104.297 360.405 104.158 360.432 104.014 360.432C103.87 360.432 103.734 360.405 103.606 360.352C103.478 360.293 103.363 360.216 103.262 360.12C103.166 360.019 103.089 359.904 103.03 359.776C102.977 359.643 102.95 359.504 102.95 359.36C102.95 359.211 102.977 359.072 103.03 358.944C103.089 358.811 103.166 358.696 103.262 358.6C103.363 358.499 103.478 358.421 103.606 358.368C103.734 358.309 103.87 358.28 104.014 358.28C104.158 358.28 104.297 358.309 104.43 358.368C104.563 358.421 104.678 358.499 104.774 358.6C104.875 358.696 104.955 358.811 105.014 358.944C105.073 359.072 105.102 359.211 105.102 359.36ZM112.761 363.392C112.713 363.451 112.665 363.499 112.617 363.536C112.574 363.568 112.51 363.584 112.425 363.584C112.339 363.584 112.249 363.552 112.153 363.488C112.062 363.419 111.945 363.347 111.801 363.272C111.662 363.192 111.491 363.12 111.289 363.056C111.091 362.987 110.846 362.952 110.553 362.952C110.169 362.952 109.83 363.021 109.537 363.16C109.243 363.299 108.998 363.496 108.801 363.752C108.609 364.008 108.462 364.32 108.361 364.688C108.259 365.056 108.209 365.469 108.209 365.928C108.209 366.403 108.262 366.827 108.369 367.2C108.475 367.568 108.627 367.88 108.825 368.136C109.022 368.387 109.262 368.579 109.545 368.712C109.827 368.84 110.142 368.904 110.489 368.904C110.825 368.904 111.102 368.864 111.321 368.784C111.539 368.699 111.721 368.608 111.865 368.512C112.009 368.416 112.129 368.328 112.225 368.248C112.321 368.163 112.419 368.12 112.521 368.12C112.649 368.12 112.747 368.168 112.817 368.264L113.265 368.84C113.078 369.069 112.867 369.264 112.633 369.424C112.403 369.584 112.158 369.715 111.897 369.816C111.635 369.917 111.361 369.992 111.073 370.04C110.79 370.088 110.502 370.112 110.209 370.112C109.702 370.112 109.227 370.019 108.785 369.832C108.347 369.645 107.966 369.373 107.641 369.016C107.321 368.659 107.067 368.221 106.881 367.704C106.694 367.181 106.601 366.589 106.601 365.928C106.601 365.325 106.683 364.768 106.849 364.256C107.019 363.744 107.267 363.304 107.593 362.936C107.923 362.563 108.329 362.272 108.809 362.064C109.289 361.851 109.838 361.744 110.457 361.744C111.038 361.744 111.55 361.837 111.993 362.024C112.435 362.211 112.83 362.475 113.177 362.816L112.761 363.392ZM116.353 361.872V370H114.793V361.872H116.353ZM116.649 359.36C116.649 359.504 116.62 359.643 116.561 359.776C116.502 359.904 116.422 360.019 116.321 360.12C116.225 360.216 116.11 360.293 115.977 360.352C115.844 360.405 115.705 360.432 115.561 360.432C115.417 360.432 115.281 360.405 115.153 360.352C115.025 360.293 114.91 360.216 114.809 360.12C114.713 360.019 114.636 359.904 114.577 359.776C114.524 359.643 114.497 359.504 114.497 359.36C114.497 359.211 114.524 359.072 114.577 358.944C114.636 358.811 114.713 358.696 114.809 358.6C114.91 358.499 115.025 358.421 115.153 358.368C115.281 358.309 115.417 358.28 115.561 358.28C115.705 358.28 115.844 358.309 115.977 358.368C116.11 358.421 116.225 358.499 116.321 358.6C116.422 358.696 116.502 358.811 116.561 358.944C116.62 359.072 116.649 359.211 116.649 359.36ZM122.98 366.392C122.345 366.413 121.806 366.464 121.364 366.544C120.921 366.619 120.561 366.72 120.284 366.848C120.006 366.976 119.806 367.128 119.684 367.304C119.561 367.475 119.5 367.667 119.5 367.88C119.5 368.083 119.532 368.259 119.596 368.408C119.665 368.552 119.756 368.672 119.868 368.768C119.985 368.859 120.121 368.925 120.276 368.968C120.43 369.011 120.598 369.032 120.78 369.032C121.02 369.032 121.238 369.008 121.436 368.96C121.638 368.912 121.828 368.845 122.004 368.76C122.18 368.669 122.348 368.56 122.508 368.432C122.668 368.304 122.825 368.157 122.98 367.992V366.392ZM118.404 363.008C118.857 362.576 119.348 362.253 119.876 362.04C120.409 361.827 120.993 361.72 121.628 361.72C122.092 361.72 122.502 361.797 122.86 361.952C123.217 362.101 123.518 362.312 123.764 362.584C124.009 362.856 124.193 363.181 124.316 363.56C124.444 363.939 124.508 364.357 124.508 364.816V370H123.812C123.657 370 123.54 369.976 123.46 369.928C123.38 369.875 123.316 369.779 123.268 369.64L123.1 368.928C122.892 369.12 122.686 369.291 122.484 369.44C122.281 369.584 122.068 369.709 121.844 369.816C121.625 369.917 121.39 369.995 121.14 370.048C120.889 370.101 120.612 370.128 120.308 370.128C119.988 370.128 119.686 370.085 119.404 370C119.126 369.909 118.884 369.773 118.676 369.592C118.468 369.411 118.302 369.184 118.18 368.912C118.062 368.64 118.004 368.323 118.004 367.96C118.004 367.64 118.089 367.333 118.26 367.04C118.436 366.741 118.718 366.475 119.108 366.24C119.502 366.005 120.014 365.813 120.644 365.664C121.278 365.515 122.057 365.429 122.98 365.408V364.816C122.98 364.203 122.849 363.744 122.588 363.44C122.326 363.136 121.942 362.984 121.436 362.984C121.094 362.984 120.806 363.027 120.572 363.112C120.342 363.197 120.142 363.293 119.972 363.4C119.806 363.501 119.66 363.595 119.532 363.68C119.409 363.765 119.281 363.808 119.148 363.808C119.041 363.808 118.948 363.779 118.868 363.72C118.793 363.661 118.732 363.592 118.684 363.512L118.404 363.008ZM137.539 368.568V370H130.963V358.512H132.667V368.568H137.539ZM140.509 361.872V370H138.949V361.872H140.509ZM140.805 359.36C140.805 359.504 140.776 359.643 140.717 359.776C140.659 359.904 140.579 360.019 140.477 360.12C140.381 360.216 140.267 360.293 140.133 360.352C140 360.405 139.861 360.432 139.717 360.432C139.573 360.432 139.437 360.405 139.309 360.352C139.181 360.293 139.067 360.216 138.965 360.12C138.869 360.019 138.792 359.904 138.733 359.776C138.68 359.643 138.653 359.504 138.653 359.36C138.653 359.211 138.68 359.072 138.733 358.944C138.792 358.811 138.869 358.696 138.965 358.6C139.067 358.499 139.181 358.421 139.309 358.368C139.437 358.309 139.573 358.28 139.717 358.28C139.861 358.28 140 358.309 140.133 358.368C140.267 358.421 140.381 358.499 140.477 358.6C140.579 358.696 140.659 358.811 140.717 358.944C140.776 359.072 140.805 359.211 140.805 359.36ZM142.768 370V361.872H143.704C143.923 361.872 144.059 361.976 144.112 362.184L144.224 362.96C144.523 362.603 144.853 362.312 145.216 362.088C145.584 361.859 146.013 361.744 146.504 361.744C147.043 361.744 147.48 361.893 147.816 362.192C148.152 362.485 148.397 362.885 148.552 363.392C148.669 363.104 148.821 362.856 149.008 362.648C149.195 362.44 149.403 362.269 149.632 362.136C149.861 362.003 150.104 361.904 150.36 361.84C150.621 361.776 150.885 361.744 151.152 361.744C151.584 361.744 151.968 361.813 152.304 361.952C152.645 362.085 152.933 362.283 153.168 362.544C153.403 362.805 153.581 363.128 153.704 363.512C153.827 363.896 153.888 364.333 153.888 364.824V370H152.32V364.824C152.32 364.216 152.187 363.757 151.92 363.448C151.659 363.139 151.275 362.984 150.768 362.984C150.544 362.984 150.331 363.024 150.128 363.104C149.925 363.179 149.747 363.293 149.592 363.448C149.443 363.603 149.323 363.795 149.232 364.024C149.147 364.253 149.104 364.52 149.104 364.824V370H147.536V364.824C147.536 364.195 147.411 363.731 147.16 363.432C146.909 363.133 146.541 362.984 146.056 362.984C145.72 362.984 145.408 363.072 145.12 363.248C144.832 363.424 144.568 363.664 144.328 363.968V370H142.768Z" fill="white"/>
<path d="M146.661 124.72L144.957 120.264C144.834 119.96 144.711 119.576 144.589 119.112C144.53 119.341 144.469 119.555 144.405 119.752C144.346 119.949 144.287 120.125 144.229 120.28L142.533 124.72H146.661ZM150.029 129H148.717C148.567 129 148.445 128.963 148.349 128.888C148.253 128.813 148.183 128.717 148.141 128.6L147.125 125.936H142.061L141.045 128.6C141.007 128.701 140.938 128.795 140.837 128.88C140.735 128.96 140.613 129 140.469 129H139.157L143.733 117.512H145.453L150.029 129ZM151.112 129V120.872H152.048C152.266 120.872 152.402 120.976 152.456 121.184L152.568 121.96C152.866 121.603 153.197 121.312 153.56 121.088C153.928 120.859 154.357 120.744 154.848 120.744C155.386 120.744 155.824 120.893 156.16 121.192C156.496 121.485 156.741 121.885 156.896 122.392C157.013 122.104 157.165 121.856 157.352 121.648C157.538 121.44 157.746 121.269 157.976 121.136C158.205 121.003 158.448 120.904 158.704 120.84C158.965 120.776 159.229 120.744 159.496 120.744C159.928 120.744 160.312 120.813 160.648 120.952C160.989 121.085 161.277 121.283 161.512 121.544C161.746 121.805 161.925 122.128 162.048 122.512C162.17 122.896 162.232 123.333 162.232 123.824V129H160.664V123.824C160.664 123.216 160.53 122.757 160.264 122.448C160.002 122.139 159.618 121.984 159.112 121.984C158.888 121.984 158.674 122.024 158.472 122.104C158.269 122.179 158.09 122.293 157.936 122.448C157.786 122.603 157.666 122.795 157.576 123.024C157.49 123.253 157.448 123.52 157.448 123.824V129H155.88V123.824C155.88 123.195 155.754 122.731 155.504 122.432C155.253 122.133 154.885 121.984 154.4 121.984C154.064 121.984 153.752 122.072 153.464 122.248C153.176 122.424 152.912 122.664 152.672 122.968V129H151.112ZM165.962 120.872V129H164.402V120.872H165.962ZM166.258 118.36C166.258 118.504 166.229 118.643 166.17 118.776C166.112 118.904 166.032 119.019 165.93 119.12C165.834 119.216 165.72 119.293 165.586 119.352C165.453 119.405 165.314 119.432 165.17 119.432C165.026 119.432 164.89 119.405 164.762 119.352C164.634 119.293 164.52 119.216 164.418 119.12C164.322 119.019 164.245 118.904 164.186 118.776C164.133 118.643 164.106 118.504 164.106 118.36C164.106 118.211 164.133 118.072 164.186 117.944C164.245 117.811 164.322 117.696 164.418 117.6C164.52 117.499 164.634 117.421 164.762 117.368C164.89 117.309 165.026 117.28 165.17 117.28C165.314 117.28 165.453 117.309 165.586 117.368C165.72 117.421 165.834 117.499 165.93 117.6C166.032 117.696 166.112 117.811 166.17 117.944C166.229 118.072 166.258 118.211 166.258 118.36ZM169.693 122.432C169.954 121.899 170.269 121.48 170.637 121.176C171.005 120.872 171.448 120.72 171.965 120.72C172.141 120.72 172.306 120.741 172.461 120.784C172.621 120.821 172.76 120.88 172.877 120.96L172.773 122.136C172.736 122.28 172.648 122.352 172.509 122.352C172.434 122.352 172.322 122.339 172.173 122.312C172.024 122.28 171.864 122.264 171.693 122.264C171.442 122.264 171.221 122.301 171.029 122.376C170.837 122.445 170.664 122.552 170.509 122.696C170.36 122.835 170.226 123.008 170.109 123.216C169.992 123.419 169.882 123.651 169.781 123.912V129H168.221V120.872H169.117C169.288 120.872 169.402 120.904 169.461 120.968C169.525 121.027 169.57 121.133 169.597 121.288L169.693 122.432ZM180.84 120.872V129H179.904C179.691 129 179.552 128.896 179.488 128.688L179.376 127.872C179.2 128.059 179.016 128.229 178.824 128.384C178.632 128.539 178.427 128.672 178.208 128.784C177.99 128.891 177.758 128.973 177.512 129.032C177.267 129.096 177.003 129.128 176.72 129.128C176.272 129.128 175.878 129.053 175.536 128.904C175.2 128.755 174.918 128.547 174.688 128.28C174.459 128.008 174.286 127.683 174.168 127.304C174.051 126.925 173.992 126.507 173.992 126.048V120.872H175.56V126.048C175.56 126.629 175.694 127.083 175.96 127.408C176.227 127.728 176.635 127.888 177.184 127.888C177.584 127.888 177.958 127.795 178.304 127.608C178.651 127.416 178.976 127.155 179.28 126.824V120.872H180.84ZM184.618 117.192V129H183.05V117.192H184.618ZM192.925 118.896V122.744H197.533V124.128H192.925V129H191.213V117.512H198.333V118.896H192.925ZM203.183 125.392C202.548 125.413 202.009 125.464 201.567 125.544C201.124 125.619 200.764 125.72 200.487 125.848C200.209 125.976 200.009 126.128 199.887 126.304C199.764 126.475 199.703 126.667 199.703 126.88C199.703 127.083 199.735 127.259 199.799 127.408C199.868 127.552 199.959 127.672 200.071 127.768C200.188 127.859 200.324 127.925 200.479 127.968C200.633 128.011 200.801 128.032 200.983 128.032C201.223 128.032 201.441 128.008 201.639 127.96C201.841 127.912 202.031 127.845 202.207 127.76C202.383 127.669 202.551 127.56 202.711 127.432C202.871 127.304 203.028 127.157 203.183 126.992V125.392ZM198.607 122.008C199.06 121.576 199.551 121.253 200.079 121.04C200.612 120.827 201.196 120.72 201.831 120.72C202.295 120.72 202.705 120.797 203.063 120.952C203.42 121.101 203.721 121.312 203.967 121.584C204.212 121.856 204.396 122.181 204.519 122.56C204.647 122.939 204.711 123.357 204.711 123.816V129H204.015C203.86 129 203.743 128.976 203.663 128.928C203.583 128.875 203.519 128.779 203.471 128.64L203.303 127.928C203.095 128.12 202.889 128.291 202.687 128.44C202.484 128.584 202.271 128.709 202.047 128.816C201.828 128.917 201.593 128.995 201.343 129.048C201.092 129.101 200.815 129.128 200.511 129.128C200.191 129.128 199.889 129.085 199.607 129C199.329 128.909 199.087 128.773 198.879 128.592C198.671 128.411 198.505 128.184 198.383 127.912C198.265 127.64 198.207 127.323 198.207 126.96C198.207 126.64 198.292 126.333 198.463 126.04C198.639 125.741 198.921 125.475 199.311 125.24C199.705 125.005 200.217 124.813 200.847 124.664C201.481 124.515 202.26 124.429 203.183 124.408V123.816C203.183 123.203 203.052 122.744 202.791 122.44C202.529 122.136 202.145 121.984 201.639 121.984C201.297 121.984 201.009 122.027 200.775 122.112C200.545 122.197 200.345 122.293 200.175 122.4C200.009 122.501 199.863 122.595 199.735 122.68C199.612 122.765 199.484 122.808 199.351 122.808C199.244 122.808 199.151 122.779 199.071 122.72C198.996 122.661 198.935 122.592 198.887 122.512L198.607 122.008ZM208.431 120.872V129H206.871V120.872H208.431ZM208.727 118.36C208.727 118.504 208.698 118.643 208.639 118.776C208.58 118.904 208.5 119.019 208.399 119.12C208.303 119.216 208.188 119.293 208.055 119.352C207.922 119.405 207.783 119.432 207.639 119.432C207.495 119.432 207.359 119.405 207.231 119.352C207.103 119.293 206.988 119.216 206.887 119.12C206.791 119.019 206.714 118.904 206.655 118.776C206.602 118.643 206.575 118.504 206.575 118.36C206.575 118.211 206.602 118.072 206.655 117.944C206.714 117.811 206.791 117.696 206.887 117.6C206.988 117.499 207.103 117.421 207.231 117.368C207.359 117.309 207.495 117.28 207.639 117.28C207.783 117.28 207.922 117.309 208.055 117.368C208.188 117.421 208.303 117.499 208.399 117.6C208.5 117.696 208.58 117.811 208.639 117.944C208.698 118.072 208.727 118.211 208.727 118.36ZM216.354 121.528C216.354 121.64 216.332 121.749 216.29 121.856C216.252 121.963 216.202 122.053 216.138 122.128L211.874 127.776H216.21V129H210.042V128.344C210.042 128.269 210.06 128.181 210.098 128.08C210.135 127.973 210.188 127.875 210.258 127.784L214.546 122.096H210.29V120.872H216.354V121.528Z" fill="white"/>
<defs>
<filter id="filter0_f" x="101.934" y="195.098" width="82.8763" height="50.8679" filterUnits="userSpaceOnUse" color-interpolation-filters="sRGB">
<feFlood flood-opacity="0" result="BackgroundImageFix"/>
<feBlend mode="normal" in="SourceGraphic" in2="BackgroundImageFix" result="shape"/>
<feGaussianBlur stdDeviation="7" result="effect1_foregroundBlur"/>
</filter>
<filter id="filter1_f" x="137.684" y="76.3477" width="82.29" height="51.3071" filterUnits="userSpaceOnUse" color-interpolation-filters="sRGB">
<feFlood flood-opacity="0" result="BackgroundImageFix"/>
<feBlend mode="normal" in="SourceGraphic" in2="BackgroundImageFix" result="shape"/>
<feGaussianBlur stdDeviation="7" result="effect1_foregroundBlur"/>
</filter>
<filter id="filter2_f" x="73.6836" y="26.3477" width="82.29" height="51.3071" filterUnits="userSpaceOnUse" color-interpolation-filters="sRGB">
<feFlood flood-opacity="0" result="BackgroundImageFix"/>
<feBlend mode="normal" in="SourceGraphic" in2="BackgroundImageFix" result="shape"/>
<feGaussianBlur stdDeviation="7" result="effect1_foregroundBlur"/>
</filter>
<filter id="filter3_f" x="51.6836" y="237.348" width="82.29" height="51.3071" filterUnits="userSpaceOnUse" color-interpolation-filters="sRGB">
<feFlood flood-opacity="0" result="BackgroundImageFix"/>
<feBlend mode="normal" in="SourceGraphic" in2="BackgroundImageFix" result="shape"/>
<feGaussianBlur stdDeviation="7" result="effect1_foregroundBlur"/>
</filter>
<filter id="filter4_f" x="71.6836" y="321.348" width="82.29" height="51.3071" filterUnits="userSpaceOnUse" color-interpolation-filters="sRGB">
<feFlood flood-opacity="0" result="BackgroundImageFix"/>
<feBlend mode="normal" in="SourceGraphic" in2="BackgroundImageFix" result="shape"/>
<feGaussianBlur stdDeviation="7" result="effect1_foregroundBlur"/>
</filter>
<filter id="filter5_f" x="49.6836" y="408.348" width="82.29" height="51.3071" filterUnits="userSpaceOnUse" color-interpolation-filters="sRGB">
<feFlood flood-opacity="0" result="BackgroundImageFix"/>
<feBlend mode="normal" in="SourceGraphic" in2="BackgroundImageFix" result="shape"/>
<feGaussianBlur stdDeviation="7" result="effect1_foregroundBlur"/>
</filter>
<filter id="filter6_f" x="362.684" y="370.348" width="82.29" height="51.3071" filterUnits="userSpaceOnUse" color-interpolation-filters="sRGB">
<feFlood flood-opacity="0" result="BackgroundImageFix"/>
<feBlend mode="normal" in="SourceGraphic" in2="BackgroundImageFix" result="shape"/>
<feGaussianBlur stdDeviation="7" result="effect1_foregroundBlur"/>
</filter>
<filter id="filter7_f" x="190.684" y="348.348" width="82.29" height="51.3071" filterUnits="userSpaceOnUse" color-interpolation-filters="sRGB">
<feFlood flood-opacity="0" result="BackgroundImageFix"/>
<feBlend mode="normal" in="SourceGraphic" in2="BackgroundImageFix" result="shape"/>
<feGaussianBlur stdDeviation="7" result="effect1_foregroundBlur"/>
</filter>
<filter id="filter8_f" x="123.684" y="197.348" width="82.29" height="51.3071" filterUnits="userSpaceOnUse" color-interpolation-filters="sRGB">
<feFlood flood-opacity="0" result="BackgroundImageFix"/>
<feBlend mode="normal" in="SourceGraphic" in2="BackgroundImageFix" result="shape"/>
<feGaussianBlur stdDeviation="7" result="effect1_foregroundBlur"/>
</filter>
</defs>
</svg>
