<svg width="445" height="467" viewBox="0 0 445 467" fill="none" xmlns="http://www.w3.org/2000/svg">
<path d="M231.619 213.11L228.035 224.598H226.499L223.699 216.078C223.635 215.907 223.579 215.702 223.531 215.462C223.472 215.707 223.416 215.912 223.363 216.078L220.531 224.598H219.003L215.419 213.11H216.843C216.992 213.11 217.118 213.147 217.219 213.222C217.32 213.291 217.387 213.387 217.419 213.51L219.683 221.198C219.726 221.347 219.763 221.51 219.795 221.686C219.832 221.862 219.87 222.046 219.907 222.238C219.944 222.046 219.982 221.862 220.019 221.686C220.062 221.51 220.11 221.347 220.163 221.198L222.755 213.51C222.787 213.403 222.854 213.31 222.955 213.23C223.062 213.15 223.187 213.11 223.331 213.11H223.819C223.968 213.11 224.091 213.147 224.187 213.222C224.283 213.296 224.352 213.392 224.395 213.51L226.979 221.198C227.075 221.491 227.16 221.824 227.235 222.198C227.299 221.83 227.368 221.496 227.443 221.198L229.715 213.51C229.742 213.403 229.808 213.31 229.915 213.23C230.022 213.15 230.147 213.11 230.291 213.11H231.619ZM234.494 216.47V224.598H232.934V216.47H234.494ZM234.79 213.958C234.79 214.102 234.76 214.24 234.702 214.374C234.643 214.502 234.563 214.616 234.462 214.718C234.366 214.814 234.251 214.891 234.118 214.95C233.984 215.003 233.846 215.03 233.702 215.03C233.558 215.03 233.422 215.003 233.294 214.95C233.166 214.891 233.051 214.814 232.95 214.718C232.854 214.616 232.776 214.502 232.718 214.374C232.664 214.24 232.638 214.102 232.638 213.958C232.638 213.808 232.664 213.67 232.718 213.542C232.776 213.408 232.854 213.294 232.95 213.198C233.051 213.096 233.166 213.019 233.294 212.966C233.422 212.907 233.558 212.878 233.702 212.878C233.846 212.878 233.984 212.907 234.118 212.966C234.251 213.019 234.366 213.096 234.462 213.198C234.563 213.294 234.643 213.408 234.702 213.542C234.76 213.67 234.79 213.808 234.79 213.958ZM238.352 212.79V224.598H236.784V212.79H238.352ZM242.18 212.79V224.598H240.612V212.79H242.18ZM246.041 216.47V224.598H244.481V216.47H246.041ZM246.337 213.958C246.337 214.102 246.307 214.24 246.249 214.374C246.19 214.502 246.11 214.616 246.009 214.718C245.913 214.814 245.798 214.891 245.664 214.95C245.531 215.003 245.393 215.03 245.249 215.03C245.105 215.03 244.969 215.003 244.841 214.95C244.713 214.891 244.598 214.814 244.497 214.718C244.401 214.616 244.323 214.502 244.265 214.374C244.211 214.24 244.185 214.102 244.185 213.958C244.185 213.808 244.211 213.67 244.265 213.542C244.323 213.408 244.401 213.294 244.497 213.198C244.598 213.096 244.713 213.019 244.841 212.966C244.969 212.907 245.105 212.878 245.249 212.878C245.393 212.878 245.531 212.907 245.664 212.966C245.798 213.019 245.913 213.096 246.009 213.198C246.11 213.294 246.19 213.408 246.249 213.542C246.307 213.67 246.337 213.808 246.337 213.958ZM252.667 220.99C252.032 221.011 251.494 221.062 251.051 221.142C250.608 221.216 250.248 221.318 249.971 221.446C249.694 221.574 249.494 221.726 249.371 221.902C249.248 222.072 249.187 222.264 249.187 222.478C249.187 222.68 249.219 222.856 249.283 223.006C249.352 223.15 249.443 223.27 249.555 223.366C249.672 223.456 249.808 223.523 249.963 223.566C250.118 223.608 250.286 223.63 250.467 223.63C250.707 223.63 250.926 223.606 251.123 223.558C251.326 223.51 251.515 223.443 251.691 223.358C251.867 223.267 252.035 223.158 252.195 223.03C252.355 222.902 252.512 222.755 252.667 222.59V220.99ZM248.091 217.606C248.544 217.174 249.035 216.851 249.563 216.638C250.096 216.424 250.68 216.318 251.315 216.318C251.779 216.318 252.19 216.395 252.547 216.55C252.904 216.699 253.206 216.91 253.451 217.182C253.696 217.454 253.88 217.779 254.003 218.158C254.131 218.536 254.195 218.955 254.195 219.414V224.598H253.499C253.344 224.598 253.227 224.574 253.147 224.526C253.067 224.472 253.003 224.376 252.955 224.238L252.787 223.526C252.579 223.718 252.374 223.888 252.171 224.038C251.968 224.182 251.755 224.307 251.531 224.414C251.312 224.515 251.078 224.592 250.827 224.646C250.576 224.699 250.299 224.726 249.995 224.726C249.675 224.726 249.374 224.683 249.091 224.598C248.814 224.507 248.571 224.371 248.363 224.19C248.155 224.008 247.99 223.782 247.867 223.51C247.75 223.238 247.691 222.92 247.691 222.558C247.691 222.238 247.776 221.931 247.947 221.638C248.123 221.339 248.406 221.072 248.795 220.838C249.19 220.603 249.702 220.411 250.331 220.262C250.966 220.112 251.744 220.027 252.667 220.006V219.414C252.667 218.8 252.536 218.342 252.275 218.038C252.014 217.734 251.63 217.582 251.123 217.582C250.782 217.582 250.494 217.624 250.259 217.71C250.03 217.795 249.83 217.891 249.659 217.998C249.494 218.099 249.347 218.192 249.219 218.278C249.096 218.363 248.968 218.406 248.835 218.406C248.728 218.406 248.635 218.376 248.555 218.318C248.48 218.259 248.419 218.19 248.371 218.11L248.091 217.606ZM256.284 224.598V216.47H257.22C257.438 216.47 257.574 216.574 257.628 216.782L257.74 217.558C258.038 217.2 258.369 216.91 258.732 216.686C259.1 216.456 259.529 216.342 260.02 216.342C260.558 216.342 260.996 216.491 261.332 216.79C261.668 217.083 261.913 217.483 262.068 217.99C262.185 217.702 262.337 217.454 262.524 217.246C262.71 217.038 262.918 216.867 263.148 216.734C263.377 216.6 263.62 216.502 263.876 216.438C264.137 216.374 264.401 216.342 264.668 216.342C265.1 216.342 265.484 216.411 265.82 216.55C266.161 216.683 266.449 216.88 266.684 217.142C266.918 217.403 267.097 217.726 267.22 218.11C267.342 218.494 267.404 218.931 267.404 219.422V224.598H265.836V219.422C265.836 218.814 265.702 218.355 265.436 218.046C265.174 217.736 264.79 217.582 264.284 217.582C264.06 217.582 263.846 217.622 263.644 217.702C263.441 217.776 263.262 217.891 263.108 218.046C262.958 218.2 262.838 218.392 262.748 218.622C262.662 218.851 262.62 219.118 262.62 219.422V224.598H261.052V219.422C261.052 218.792 260.926 218.328 260.676 218.03C260.425 217.731 260.057 217.582 259.572 217.582C259.236 217.582 258.924 217.67 258.636 217.846C258.348 218.022 258.084 218.262 257.844 218.566V224.598H256.284ZM283.277 213.11V224.598H282.413C282.28 224.598 282.168 224.574 282.077 224.526C281.992 224.478 281.904 224.4 281.813 224.294L275.325 215.902C275.336 216.046 275.344 216.187 275.349 216.326C275.36 216.464 275.365 216.595 275.365 216.718V224.598H273.869V213.11H274.749C274.898 213.11 275.01 213.128 275.085 213.166C275.16 213.198 275.242 213.275 275.333 213.398L281.837 221.798C281.821 221.643 281.808 221.494 281.797 221.35C281.792 221.2 281.789 221.062 281.789 220.934V213.11H283.277ZM288.39 220.542C288.667 220.542 288.91 220.504 289.118 220.43C289.331 220.355 289.507 220.251 289.646 220.118C289.79 219.979 289.896 219.814 289.966 219.622C290.04 219.43 290.078 219.219 290.078 218.99C290.078 218.52 289.934 218.147 289.646 217.87C289.363 217.587 288.944 217.446 288.39 217.446C287.84 217.446 287.422 217.587 287.134 217.87C286.851 218.147 286.71 218.52 286.71 218.99C286.71 219.219 286.744 219.43 286.814 219.622C286.888 219.808 286.995 219.971 287.134 220.11C287.278 220.243 287.454 220.35 287.662 220.43C287.875 220.504 288.118 220.542 288.39 220.542ZM290.878 225.022C290.878 224.83 290.824 224.678 290.718 224.566C290.611 224.448 290.464 224.358 290.278 224.294C290.096 224.224 289.883 224.176 289.638 224.15C289.392 224.118 289.134 224.094 288.862 224.078C288.595 224.062 288.32 224.048 288.038 224.038C287.755 224.022 287.483 223.995 287.222 223.958C286.944 224.096 286.715 224.264 286.534 224.462C286.358 224.659 286.27 224.891 286.27 225.158C286.27 225.328 286.312 225.488 286.398 225.638C286.488 225.787 286.624 225.915 286.806 226.022C286.992 226.134 287.224 226.219 287.502 226.278C287.784 226.342 288.12 226.374 288.51 226.374C288.894 226.374 289.232 226.339 289.526 226.27C289.819 226.206 290.064 226.112 290.262 225.99C290.464 225.872 290.616 225.731 290.718 225.566C290.824 225.4 290.878 225.219 290.878 225.022ZM292.462 216.774V217.358C292.462 217.55 292.342 217.67 292.102 217.718L291.23 217.846C291.304 218.011 291.363 218.187 291.406 218.374C291.448 218.555 291.47 218.747 291.47 218.95C291.47 219.35 291.392 219.712 291.238 220.038C291.083 220.358 290.87 220.632 290.598 220.862C290.326 221.091 290 221.267 289.622 221.39C289.248 221.512 288.838 221.574 288.39 221.574C288.022 221.574 287.678 221.534 287.358 221.454C287.198 221.55 287.075 221.656 286.99 221.774C286.91 221.886 286.87 221.998 286.87 222.11C286.87 222.296 286.947 222.435 287.102 222.526C287.262 222.616 287.467 222.683 287.718 222.726C287.974 222.763 288.264 222.787 288.59 222.798C288.92 222.808 289.254 222.827 289.59 222.854C289.931 222.875 290.264 222.918 290.59 222.982C290.92 223.04 291.211 223.139 291.462 223.278C291.718 223.411 291.923 223.598 292.078 223.838C292.238 224.072 292.318 224.379 292.318 224.758C292.318 225.11 292.23 225.451 292.054 225.782C291.883 226.112 291.632 226.406 291.302 226.662C290.971 226.918 290.568 227.123 290.094 227.278C289.619 227.432 289.08 227.51 288.477 227.51C287.875 227.51 287.35 227.451 286.902 227.334C286.459 227.216 286.088 227.059 285.79 226.862C285.496 226.664 285.275 226.435 285.126 226.174C284.982 225.912 284.91 225.64 284.91 225.358C284.91 224.963 285.032 224.63 285.278 224.358C285.523 224.08 285.862 223.864 286.294 223.71C286.059 223.603 285.872 223.459 285.734 223.278C285.595 223.091 285.526 222.846 285.526 222.542C285.526 222.424 285.547 222.304 285.59 222.182C285.632 222.054 285.696 221.928 285.782 221.806C285.872 221.678 285.982 221.558 286.11 221.446C286.243 221.334 286.395 221.232 286.566 221.142C286.166 220.918 285.851 220.622 285.622 220.254C285.392 219.88 285.278 219.446 285.278 218.95C285.278 218.55 285.355 218.19 285.51 217.87C285.664 217.55 285.878 217.275 286.15 217.046C286.427 216.816 286.755 216.64 287.134 216.518C287.518 216.395 287.936 216.334 288.39 216.334C289.094 216.334 289.699 216.48 290.206 216.774H292.462Z" fill="white"/>
<path d="M241.005 313.731C241.437 313.731 241.816 313.675 242.141 313.563C242.472 313.451 242.747 313.293 242.965 313.091C243.189 312.883 243.357 312.637 243.469 312.355C243.581 312.067 243.637 311.749 243.637 311.403C243.637 310.704 243.419 310.155 242.981 309.755C242.549 309.355 241.891 309.155 241.005 309.155H239.229V313.731H241.005ZM241.005 307.819C241.741 307.819 242.381 307.904 242.925 308.075C243.469 308.245 243.92 308.488 244.277 308.803C244.635 309.112 244.899 309.488 245.069 309.931C245.245 310.373 245.333 310.864 245.333 311.403C245.333 311.941 245.24 312.437 245.053 312.891C244.867 313.339 244.592 313.725 244.229 314.051C243.867 314.376 243.413 314.629 242.869 314.811C242.331 314.987 241.709 315.075 241.005 315.075H239.229V319.307H237.525V307.819H241.005ZM251.011 315.699C250.376 315.72 249.838 315.771 249.395 315.851C248.952 315.925 248.592 316.027 248.315 316.155C248.038 316.283 247.838 316.435 247.715 316.611C247.592 316.781 247.531 316.973 247.531 317.187C247.531 317.389 247.563 317.565 247.627 317.715C247.696 317.859 247.787 317.979 247.899 318.075C248.016 318.165 248.152 318.232 248.307 318.275C248.462 318.317 248.63 318.339 248.811 318.339C249.051 318.339 249.27 318.315 249.467 318.267C249.67 318.219 249.859 318.152 250.035 318.067C250.211 317.976 250.379 317.867 250.539 317.739C250.699 317.611 250.856 317.464 251.011 317.299V315.699ZM246.435 312.315C246.888 311.883 247.379 311.56 247.907 311.347C248.44 311.133 249.024 311.027 249.659 311.027C250.123 311.027 250.534 311.104 250.891 311.259C251.248 311.408 251.55 311.619 251.795 311.891C252.04 312.163 252.224 312.488 252.347 312.867C252.475 313.245 252.539 313.664 252.539 314.123V319.307H251.843C251.688 319.307 251.571 319.283 251.491 319.235C251.411 319.181 251.347 319.085 251.299 318.947L251.131 318.235C250.923 318.427 250.718 318.597 250.515 318.747C250.312 318.891 250.099 319.016 249.875 319.123C249.656 319.224 249.422 319.301 249.171 319.355C248.92 319.408 248.643 319.435 248.339 319.435C248.019 319.435 247.718 319.392 247.435 319.307C247.158 319.216 246.915 319.08 246.707 318.899C246.499 318.717 246.334 318.491 246.211 318.219C246.094 317.947 246.035 317.629 246.035 317.267C246.035 316.947 246.12 316.64 246.291 316.347C246.467 316.048 246.75 315.781 247.139 315.547C247.534 315.312 248.046 315.12 248.675 314.971C249.31 314.821 250.088 314.736 251.011 314.715V314.123C251.011 313.509 250.88 313.051 250.619 312.747C250.358 312.443 249.974 312.291 249.467 312.291C249.126 312.291 248.838 312.333 248.603 312.419C248.374 312.504 248.174 312.6 248.003 312.707C247.838 312.808 247.691 312.901 247.563 312.987C247.44 313.072 247.312 313.115 247.179 313.115C247.072 313.115 246.979 313.085 246.899 313.027C246.824 312.968 246.763 312.899 246.715 312.819L246.435 312.315ZM257.062 319.435C256.406 319.435 255.899 319.251 255.542 318.883C255.19 318.515 255.014 317.989 255.014 317.307V312.443H254.07C253.979 312.443 253.902 312.416 253.838 312.363C253.779 312.304 253.75 312.219 253.75 312.107V311.475L255.07 311.291L255.422 308.867C255.443 308.776 255.483 308.707 255.542 308.659C255.606 308.605 255.686 308.579 255.782 308.579H256.574V311.307H258.878V312.443H256.574V317.203C256.574 317.523 256.651 317.763 256.806 317.923C256.966 318.077 257.169 318.155 257.414 318.155C257.558 318.155 257.681 318.136 257.782 318.099C257.889 318.061 257.979 318.021 258.054 317.979C258.129 317.931 258.193 317.888 258.246 317.851C258.299 317.813 258.347 317.795 258.39 317.795C258.443 317.795 258.483 317.808 258.51 317.835C258.542 317.856 258.574 317.893 258.606 317.947L259.07 318.699C258.814 318.933 258.51 319.115 258.158 319.243C257.806 319.371 257.441 319.435 257.062 319.435ZM261.787 312.739C262.048 312.205 262.363 311.787 262.731 311.483C263.099 311.179 263.541 311.027 264.059 311.027C264.235 311.027 264.4 311.048 264.555 311.091C264.715 311.128 264.853 311.187 264.971 311.267L264.867 312.443C264.829 312.587 264.741 312.659 264.603 312.659C264.528 312.659 264.416 312.645 264.267 312.619C264.117 312.587 263.957 312.571 263.787 312.571C263.536 312.571 263.315 312.608 263.123 312.683C262.931 312.752 262.757 312.859 262.603 313.003C262.453 313.141 262.32 313.315 262.203 313.523C262.085 313.725 261.976 313.957 261.875 314.219V319.307H260.315V311.179H261.211C261.381 311.179 261.496 311.211 261.555 311.275C261.619 311.333 261.664 311.44 261.691 311.595L261.787 312.739ZM267.806 311.179V319.307H266.246V311.179H267.806ZM268.102 308.667C268.102 308.811 268.073 308.949 268.014 309.083C267.955 309.211 267.875 309.325 267.774 309.427C267.678 309.523 267.563 309.6 267.43 309.659C267.297 309.712 267.158 309.739 267.014 309.739C266.87 309.739 266.734 309.712 266.606 309.659C266.478 309.6 266.363 309.523 266.262 309.427C266.166 309.325 266.089 309.211 266.03 309.083C265.977 308.949 265.95 308.811 265.95 308.667C265.95 308.517 265.977 308.379 266.03 308.251C266.089 308.117 266.166 308.003 266.262 307.907C266.363 307.805 266.478 307.728 266.606 307.675C266.734 307.616 266.87 307.587 267.014 307.587C267.158 307.587 267.297 307.616 267.43 307.675C267.563 307.728 267.678 307.805 267.774 307.907C267.875 308.003 267.955 308.117 268.014 308.251C268.073 308.379 268.102 308.517 268.102 308.667ZM275.761 312.699C275.713 312.757 275.665 312.805 275.617 312.843C275.574 312.875 275.51 312.891 275.425 312.891C275.339 312.891 275.249 312.859 275.153 312.795C275.062 312.725 274.945 312.653 274.801 312.579C274.662 312.499 274.491 312.427 274.289 312.363C274.091 312.293 273.846 312.259 273.553 312.259C273.169 312.259 272.83 312.328 272.537 312.467C272.243 312.605 271.998 312.803 271.801 313.059C271.609 313.315 271.462 313.627 271.361 313.995C271.259 314.363 271.209 314.776 271.209 315.235C271.209 315.709 271.262 316.133 271.369 316.507C271.475 316.875 271.627 317.187 271.825 317.443C272.022 317.693 272.262 317.885 272.545 318.019C272.827 318.147 273.142 318.211 273.489 318.211C273.825 318.211 274.102 318.171 274.321 318.091C274.539 318.005 274.721 317.915 274.865 317.819C275.009 317.723 275.129 317.635 275.225 317.555C275.321 317.469 275.419 317.427 275.521 317.427C275.649 317.427 275.747 317.475 275.817 317.571L276.265 318.147C276.078 318.376 275.867 318.571 275.633 318.731C275.403 318.891 275.158 319.021 274.897 319.123C274.635 319.224 274.361 319.299 274.073 319.347C273.79 319.395 273.502 319.419 273.209 319.419C272.702 319.419 272.227 319.325 271.785 319.139C271.347 318.952 270.966 318.68 270.641 318.323C270.321 317.965 270.067 317.528 269.881 317.011C269.694 316.488 269.601 315.896 269.601 315.235C269.601 314.632 269.683 314.075 269.849 313.563C270.019 313.051 270.267 312.611 270.593 312.243C270.923 311.869 271.329 311.579 271.809 311.371C272.289 311.157 272.838 311.051 273.457 311.051C274.038 311.051 274.55 311.144 274.993 311.331C275.435 311.517 275.83 311.781 276.177 312.123L275.761 312.699ZM279.353 311.179V319.307H277.793V311.179H279.353ZM279.649 308.667C279.649 308.811 279.62 308.949 279.561 309.083C279.502 309.211 279.422 309.325 279.321 309.427C279.225 309.523 279.11 309.6 278.977 309.659C278.844 309.712 278.705 309.739 278.561 309.739C278.417 309.739 278.281 309.712 278.153 309.659C278.025 309.6 277.91 309.523 277.809 309.427C277.713 309.325 277.636 309.211 277.577 309.083C277.524 308.949 277.497 308.811 277.497 308.667C277.497 308.517 277.524 308.379 277.577 308.251C277.636 308.117 277.713 308.003 277.809 307.907C277.91 307.805 278.025 307.728 278.153 307.675C278.281 307.616 278.417 307.587 278.561 307.587C278.705 307.587 278.844 307.616 278.977 307.675C279.11 307.728 279.225 307.805 279.321 307.907C279.422 308.003 279.502 308.117 279.561 308.251C279.62 308.379 279.649 308.517 279.649 308.667ZM285.98 315.699C285.345 315.72 284.806 315.771 284.364 315.851C283.921 315.925 283.561 316.027 283.284 316.155C283.006 316.283 282.806 316.435 282.684 316.611C282.561 316.781 282.5 316.973 282.5 317.187C282.5 317.389 282.532 317.565 282.596 317.715C282.665 317.859 282.756 317.979 282.868 318.075C282.985 318.165 283.121 318.232 283.276 318.275C283.43 318.317 283.598 318.339 283.78 318.339C284.02 318.339 284.238 318.315 284.436 318.267C284.638 318.219 284.828 318.152 285.004 318.067C285.18 317.976 285.348 317.867 285.508 317.739C285.668 317.611 285.825 317.464 285.98 317.299V315.699ZM281.404 312.315C281.857 311.883 282.348 311.56 282.876 311.347C283.409 311.133 283.993 311.027 284.628 311.027C285.092 311.027 285.502 311.104 285.86 311.259C286.217 311.408 286.518 311.619 286.764 311.891C287.009 312.163 287.193 312.488 287.316 312.867C287.444 313.245 287.508 313.664 287.508 314.123V319.307H286.812C286.657 319.307 286.54 319.283 286.46 319.235C286.38 319.181 286.316 319.085 286.268 318.947L286.1 318.235C285.892 318.427 285.686 318.597 285.484 318.747C285.281 318.891 285.068 319.016 284.844 319.123C284.625 319.224 284.39 319.301 284.14 319.355C283.889 319.408 283.612 319.435 283.308 319.435C282.988 319.435 282.686 319.392 282.404 319.307C282.126 319.216 281.884 319.08 281.676 318.899C281.468 318.717 281.302 318.491 281.18 318.219C281.062 317.947 281.004 317.629 281.004 317.267C281.004 316.947 281.089 316.64 281.26 316.347C281.436 316.048 281.718 315.781 282.108 315.547C282.502 315.312 283.014 315.12 283.644 314.971C284.278 314.821 285.057 314.736 285.98 314.715V314.123C285.98 313.509 285.849 313.051 285.588 312.747C285.326 312.443 284.942 312.291 284.436 312.291C284.094 312.291 283.806 312.333 283.572 312.419C283.342 312.504 283.142 312.6 282.972 312.707C282.806 312.808 282.66 312.901 282.532 312.987C282.409 313.072 282.281 313.115 282.148 313.115C282.041 313.115 281.948 313.085 281.868 313.027C281.793 312.968 281.732 312.899 281.684 312.819L281.404 312.315ZM300.539 317.875V319.307H293.963V307.819H295.667V317.875H300.539ZM303.509 311.179V319.307H301.949V311.179H303.509ZM303.805 308.667C303.805 308.811 303.776 308.949 303.717 309.083C303.659 309.211 303.579 309.325 303.477 309.427C303.381 309.523 303.267 309.6 303.133 309.659C303 309.712 302.861 309.739 302.717 309.739C302.573 309.739 302.437 309.712 302.309 309.659C302.181 309.6 302.067 309.523 301.965 309.427C301.869 309.325 301.792 309.211 301.733 309.083C301.68 308.949 301.653 308.811 301.653 308.667C301.653 308.517 301.68 308.379 301.733 308.251C301.792 308.117 301.869 308.003 301.965 307.907C302.067 307.805 302.181 307.728 302.309 307.675C302.437 307.616 302.573 307.587 302.717 307.587C302.861 307.587 303 307.616 303.133 307.675C303.267 307.728 303.381 307.805 303.477 307.907C303.579 308.003 303.659 308.117 303.717 308.251C303.776 308.379 303.805 308.517 303.805 308.667ZM305.768 319.307V311.179H306.704C306.923 311.179 307.059 311.283 307.112 311.491L307.224 312.267C307.523 311.909 307.853 311.619 308.216 311.395C308.584 311.165 309.013 311.051 309.504 311.051C310.043 311.051 310.48 311.2 310.816 311.499C311.152 311.792 311.397 312.192 311.552 312.699C311.669 312.411 311.821 312.163 312.008 311.955C312.195 311.747 312.403 311.576 312.632 311.443C312.861 311.309 313.104 311.211 313.36 311.147C313.621 311.083 313.885 311.051 314.152 311.051C314.584 311.051 314.968 311.12 315.304 311.259C315.645 311.392 315.933 311.589 316.168 311.851C316.403 312.112 316.581 312.435 316.704 312.819C316.827 313.203 316.888 313.64 316.888 314.131V319.307H315.32V314.131C315.32 313.523 315.187 313.064 314.92 312.755C314.659 312.445 314.275 312.291 313.768 312.291C313.544 312.291 313.331 312.331 313.128 312.411C312.925 312.485 312.747 312.6 312.592 312.755C312.443 312.909 312.323 313.101 312.232 313.331C312.147 313.56 312.104 313.827 312.104 314.131V319.307H310.536V314.131C310.536 313.501 310.411 313.037 310.16 312.739C309.909 312.44 309.541 312.291 309.056 312.291C308.72 312.291 308.408 312.379 308.12 312.555C307.832 312.731 307.568 312.971 307.328 313.275V319.307H305.768Z" fill="white"/>
<path d="M30.6606 77.72L28.9566 73.264C28.834 72.96 28.7113 72.576 28.5886 72.112C28.53 72.3413 28.4686 72.5547 28.4046 72.752C28.346 72.9493 28.2873 73.1253 28.2286 73.28L26.5326 77.72H30.6606ZM34.0286 82H32.7166C32.5673 82 32.4446 81.9627 32.3486 81.888C32.2526 81.8133 32.1833 81.7173 32.1406 81.6L31.1246 78.936H26.0606L25.0446 81.6C25.0073 81.7013 24.938 81.7947 24.8366 81.88C24.7353 81.96 24.6126 82 24.4686 82H23.1566L27.7326 70.512H29.4526L34.0286 82ZM35.1116 82V73.872H36.0476C36.2663 73.872 36.4023 73.976 36.4556 74.184L36.5676 74.96C36.8663 74.6027 37.197 74.312 37.5596 74.088C37.9276 73.8587 38.357 73.744 38.8476 73.744C39.3863 73.744 39.8236 73.8933 40.1596 74.192C40.4956 74.4853 40.741 74.8853 40.8956 75.392C41.013 75.104 41.165 74.856 41.3516 74.648C41.5383 74.44 41.7463 74.2693 41.9756 74.136C42.205 74.0027 42.4476 73.904 42.7036 73.84C42.965 73.776 43.229 73.744 43.4956 73.744C43.9276 73.744 44.3116 73.8133 44.6476 73.952C44.989 74.0853 45.277 74.2827 45.5116 74.544C45.7463 74.8053 45.925 75.128 46.0476 75.512C46.1703 75.896 46.2316 76.3333 46.2316 76.824V82H44.6636V76.824C44.6636 76.216 44.5303 75.7573 44.2636 75.448C44.0023 75.1387 43.6183 74.984 43.1116 74.984C42.8876 74.984 42.6743 75.024 42.4716 75.104C42.269 75.1787 42.0903 75.2933 41.9356 75.448C41.7863 75.6027 41.6663 75.7947 41.5756 76.024C41.4903 76.2533 41.4476 76.52 41.4476 76.824V82H39.8796V76.824C39.8796 76.1947 39.7543 75.7307 39.5036 75.432C39.253 75.1333 38.885 74.984 38.3996 74.984C38.0636 74.984 37.7516 75.072 37.4636 75.248C37.1756 75.424 36.9116 75.664 36.6716 75.968V82H35.1116ZM49.9624 73.872V82H48.4024V73.872H49.9624ZM50.2584 71.36C50.2584 71.504 50.229 71.6427 50.1704 71.776C50.1117 71.904 50.0317 72.0187 49.9304 72.12C49.8344 72.216 49.7197 72.2933 49.5864 72.352C49.453 72.4053 49.3144 72.432 49.1704 72.432C49.0264 72.432 48.8904 72.4053 48.7624 72.352C48.6344 72.2933 48.5197 72.216 48.4184 72.12C48.3224 72.0187 48.245 71.904 48.1864 71.776C48.133 71.6427 48.1064 71.504 48.1064 71.36C48.1064 71.2107 48.133 71.072 48.1864 70.944C48.245 70.8107 48.3224 70.696 48.4184 70.6C48.5197 70.4987 48.6344 70.4213 48.7624 70.368C48.8904 70.3093 49.0264 70.28 49.1704 70.28C49.3144 70.28 49.453 70.3093 49.5864 70.368C49.7197 70.4213 49.8344 70.4987 49.9304 70.6C50.0317 70.696 50.1117 70.8107 50.1704 70.944C50.229 71.072 50.2584 71.2107 50.2584 71.36ZM53.693 75.432C53.9543 74.8987 54.269 74.48 54.637 74.176C55.005 73.872 55.4477 73.72 55.965 73.72C56.141 73.72 56.3063 73.7413 56.461 73.784C56.621 73.8213 56.7597 73.88 56.877 73.96L56.773 75.136C56.7357 75.28 56.6477 75.352 56.509 75.352C56.4343 75.352 56.3223 75.3387 56.173 75.312C56.0237 75.28 55.8637 75.264 55.693 75.264C55.4423 75.264 55.221 75.3013 55.029 75.376C54.837 75.4453 54.6637 75.552 54.509 75.696C54.3597 75.8347 54.2263 76.008 54.109 76.216C53.9917 76.4187 53.8823 76.6507 53.781 76.912V82H52.221V73.872H53.117C53.2877 73.872 53.4023 73.904 53.461 73.968C53.525 74.0267 53.5703 74.1333 53.597 74.288L53.693 75.432ZM64.8404 73.872V82H63.9044C63.691 82 63.5524 81.896 63.4884 81.688L63.3764 80.872C63.2004 81.0587 63.0164 81.2293 62.8244 81.384C62.6324 81.5387 62.427 81.672 62.2084 81.784C61.9897 81.8907 61.7577 81.9733 61.5124 82.032C61.267 82.096 61.003 82.128 60.7204 82.128C60.2724 82.128 59.8777 82.0533 59.5364 81.904C59.2004 81.7547 58.9177 81.5467 58.6884 81.28C58.459 81.008 58.2857 80.6827 58.1684 80.304C58.051 79.9253 57.9924 79.5067 57.9924 79.048V73.872H59.5604V79.048C59.5604 79.6293 59.6937 80.0827 59.9604 80.408C60.227 80.728 60.635 80.888 61.1844 80.888C61.5844 80.888 61.9577 80.7947 62.3044 80.608C62.651 80.416 62.9764 80.1547 63.2804 79.824V73.872H64.8404ZM68.6179 70.192V82H67.0499V70.192H68.6179ZM76.9249 71.896V75.744H81.5329V77.128H76.9249V82H75.2129V70.512H82.3329V71.896H76.9249ZM87.1828 78.392C86.5481 78.4133 86.0094 78.464 85.5668 78.544C85.1241 78.6187 84.7641 78.72 84.4868 78.848C84.2094 78.976 84.0094 79.128 83.8868 79.304C83.7641 79.4747 83.7028 79.6667 83.7028 79.88C83.7028 80.0827 83.7348 80.2587 83.7988 80.408C83.8681 80.552 83.9588 80.672 84.0707 80.768C84.1881 80.8587 84.3241 80.9253 84.4788 80.968C84.6334 81.0107 84.8014 81.032 84.9828 81.032C85.2228 81.032 85.4414 81.008 85.6388 80.96C85.8414 80.912 86.0308 80.8453 86.2068 80.76C86.3828 80.6693 86.5508 80.56 86.7108 80.432C86.8708 80.304 87.0281 80.1573 87.1828 79.992V78.392ZM82.6068 75.008C83.0601 74.576 83.5508 74.2533 84.0788 74.04C84.6121 73.8267 85.1961 73.72 85.8307 73.72C86.2948 73.72 86.7054 73.7973 87.0628 73.952C87.4201 74.1013 87.7214 74.312 87.9668 74.584C88.2121 74.856 88.3961 75.1813 88.5188 75.56C88.6468 75.9387 88.7108 76.3573 88.7108 76.816V82H88.0148C87.8601 82 87.7428 81.976 87.6628 81.928C87.5828 81.8747 87.5188 81.7787 87.4708 81.64L87.3028 80.928C87.0948 81.12 86.8894 81.2907 86.6868 81.44C86.4841 81.584 86.2708 81.7093 86.0468 81.816C85.8281 81.9173 85.5934 81.9947 85.3428 82.048C85.0921 82.1013 84.8148 82.128 84.5108 82.128C84.1908 82.128 83.8894 82.0853 83.6068 82C83.3294 81.9093 83.0868 81.7733 82.8788 81.592C82.6708 81.4107 82.5054 81.184 82.3828 80.912C82.2654 80.64 82.2068 80.3227 82.2068 79.96C82.2068 79.64 82.2921 79.3333 82.4628 79.04C82.6388 78.7413 82.9214 78.4747 83.3108 78.24C83.7054 78.0053 84.2174 77.8133 84.8468 77.664C85.4814 77.5147 86.2601 77.4293 87.1828 77.408V76.816C87.1828 76.2027 87.0521 75.744 86.7908 75.44C86.5294 75.136 86.1454 74.984 85.6388 74.984C85.2974 74.984 85.0094 75.0267 84.7748 75.112C84.5454 75.1973 84.3454 75.2933 84.1748 75.4C84.0094 75.5013 83.8628 75.5947 83.7348 75.68C83.6121 75.7653 83.4841 75.808 83.3508 75.808C83.2441 75.808 83.1508 75.7787 83.0708 75.72C82.9961 75.6613 82.9348 75.592 82.8868 75.512L82.6068 75.008ZM92.4311 73.872V82H90.8711V73.872H92.4311ZM92.7271 71.36C92.7271 71.504 92.6978 71.6427 92.6391 71.776C92.5805 71.904 92.5005 72.0187 92.3991 72.12C92.3031 72.216 92.1885 72.2933 92.0551 72.352C91.9218 72.4053 91.7831 72.432 91.6391 72.432C91.4951 72.432 91.3591 72.4053 91.2311 72.352C91.1031 72.2933 90.9885 72.216 90.8871 72.12C90.7911 72.0187 90.7138 71.904 90.6551 71.776C90.6018 71.6427 90.5751 71.504 90.5751 71.36C90.5751 71.2107 90.6018 71.072 90.6551 70.944C90.7138 70.8107 90.7911 70.696 90.8871 70.6C90.9885 70.4987 91.1031 70.4213 91.2311 70.368C91.3591 70.3093 91.4951 70.28 91.6391 70.28C91.7831 70.28 91.9218 70.3093 92.0551 70.368C92.1885 70.4213 92.3031 70.4987 92.3991 70.6C92.5005 70.696 92.5805 70.8107 92.6391 70.944C92.6978 71.072 92.7271 71.2107 92.7271 71.36ZM100.354 74.528C100.354 74.64 100.332 74.7493 100.29 74.856C100.252 74.9627 100.202 75.0533 100.138 75.128L95.8738 80.776H100.21V82H94.0418V81.344C94.0418 81.2693 94.0604 81.1813 94.0978 81.08C94.1351 80.9733 94.1884 80.8747 94.2578 80.784L98.5458 75.096H94.2898V73.872H100.354V74.528Z" fill="white"/>
<circle cx="253" cy="126" r="12" fill="#D32029"/>
<path d="M256.375 120.621C255.07 120.621 253.818 121.229 253 122.174C252.182 121.229 250.93 120.621 249.625 120.621C247.315 120.621 245.5 122.429 245.5 124.746C245.5 127.574 248.05 129.891 251.913 133.394L253 134.376L254.087 133.394C257.95 129.891 260.5 127.574 260.5 124.746C260.5 122.429 258.685 120.621 256.375 120.621ZM253 131.871V128.871H250.75L253 123.621V126.621H255.25" fill="white"/>
<path d="M180.313 207.908C180.489 207.908 180.645 207.976 180.781 208.112L182.053 209.492C181.349 210.364 180.481 211.032 179.449 211.496C178.425 211.96 177.193 212.192 175.753 212.192C174.465 212.192 173.305 211.972 172.273 211.532C171.249 211.092 170.373 210.48 169.645 209.696C168.917 208.912 168.357 207.976 167.965 206.888C167.581 205.8 167.389 204.612 167.389 203.324C167.389 202.02 167.597 200.828 168.013 199.748C168.429 198.66 169.013 197.724 169.765 196.94C170.525 196.156 171.429 195.548 172.477 195.116C173.525 194.676 174.685 194.456 175.957 194.456C177.221 194.456 178.341 194.664 179.317 195.08C180.301 195.496 181.137 196.04 181.825 196.712L180.745 198.212C180.681 198.308 180.597 198.392 180.493 198.464C180.397 198.536 180.261 198.572 180.085 198.572C179.965 198.572 179.841 198.54 179.713 198.476C179.585 198.404 179.445 198.32 179.293 198.224C179.141 198.12 178.965 198.008 178.765 197.888C178.565 197.768 178.333 197.66 178.069 197.564C177.805 197.46 177.497 197.376 177.145 197.312C176.801 197.24 176.401 197.204 175.945 197.204C175.169 197.204 174.457 197.344 173.809 197.624C173.169 197.896 172.617 198.296 172.153 198.824C171.689 199.344 171.329 199.984 171.073 200.744C170.817 201.496 170.689 202.356 170.689 203.324C170.689 204.3 170.825 205.168 171.097 205.928C171.377 206.688 171.753 207.328 172.225 207.848C172.697 208.368 173.253 208.768 173.893 209.048C174.533 209.32 175.221 209.456 175.957 209.456C176.397 209.456 176.793 209.432 177.145 209.384C177.505 209.336 177.833 209.26 178.129 209.156C178.433 209.052 178.717 208.92 178.981 208.76C179.253 208.592 179.521 208.388 179.785 208.148C179.865 208.076 179.949 208.02 180.037 207.98C180.125 207.932 180.217 207.908 180.313 207.908ZM190.3 206.744C189.444 206.784 188.724 206.86 188.14 206.972C187.556 207.076 187.088 207.212 186.736 207.38C186.384 207.548 186.132 207.744 185.98 207.968C185.828 208.192 185.752 208.436 185.752 208.7C185.752 209.22 185.904 209.592 186.208 209.816C186.52 210.04 186.924 210.152 187.42 210.152C188.028 210.152 188.552 210.044 188.992 209.828C189.44 209.604 189.876 209.268 190.3 208.82V206.744ZM183.508 201.404C184.924 200.108 186.628 199.46 188.62 199.46C189.34 199.46 189.984 199.58 190.552 199.82C191.12 200.052 191.6 200.38 191.992 200.804C192.384 201.22 192.68 201.72 192.88 202.304C193.088 202.888 193.192 203.528 193.192 204.224V212H191.848C191.568 212 191.352 211.96 191.2 211.88C191.048 211.792 190.928 211.62 190.84 211.364L190.576 210.476C190.264 210.756 189.96 211.004 189.664 211.22C189.368 211.428 189.06 211.604 188.74 211.748C188.42 211.892 188.076 212 187.708 212.072C187.348 212.152 186.948 212.192 186.508 212.192C185.988 212.192 185.508 212.124 185.068 211.988C184.628 211.844 184.248 211.632 183.928 211.352C183.608 211.072 183.36 210.724 183.184 210.308C183.008 209.892 182.92 209.408 182.92 208.856C182.92 208.544 182.972 208.236 183.076 207.932C183.18 207.62 183.348 207.324 183.58 207.044C183.82 206.764 184.128 206.5 184.504 206.252C184.88 206.004 185.34 205.788 185.884 205.604C186.436 205.42 187.076 205.272 187.804 205.16C188.532 205.04 189.364 204.968 190.3 204.944V204.224C190.3 203.4 190.124 202.792 189.772 202.4C189.42 202 188.912 201.8 188.248 201.8C187.768 201.8 187.368 201.856 187.048 201.968C186.736 202.08 186.46 202.208 186.22 202.352C185.98 202.488 185.76 202.612 185.56 202.724C185.368 202.836 185.152 202.892 184.912 202.892C184.704 202.892 184.528 202.84 184.384 202.736C184.24 202.624 184.124 202.496 184.036 202.352L183.508 201.404ZM198.984 194.168V212H196.02V194.168H198.984ZM204.937 194.168V212H201.973V194.168H204.937ZM215.822 204.428C215.822 204.044 215.766 203.684 215.654 203.348C215.55 203.004 215.39 202.704 215.174 202.448C214.958 202.192 214.682 201.992 214.346 201.848C214.018 201.696 213.634 201.62 213.194 201.62C212.338 201.62 211.662 201.864 211.166 202.352C210.678 202.84 210.366 203.532 210.23 204.428H215.822ZM210.17 206.216C210.218 206.848 210.33 207.396 210.506 207.86C210.682 208.316 210.914 208.696 211.202 209C211.49 209.296 211.83 209.52 212.222 209.672C212.622 209.816 213.062 209.888 213.542 209.888C214.022 209.888 214.434 209.832 214.778 209.72C215.13 209.608 215.434 209.484 215.69 209.348C215.954 209.212 216.182 209.088 216.374 208.976C216.574 208.864 216.766 208.808 216.95 208.808C217.198 208.808 217.382 208.9 217.502 209.084L218.354 210.164C218.026 210.548 217.658 210.872 217.25 211.136C216.842 211.392 216.414 211.6 215.966 211.76C215.526 211.912 215.074 212.02 214.61 212.084C214.154 212.148 213.71 212.18 213.278 212.18C212.422 212.18 211.626 212.04 210.89 211.76C210.154 211.472 209.514 211.052 208.97 210.5C208.426 209.94 207.998 209.252 207.686 208.436C207.374 207.612 207.218 206.66 207.218 205.58C207.218 204.74 207.354 203.952 207.626 203.216C207.898 202.472 208.286 201.828 208.79 201.284C209.302 200.732 209.922 200.296 210.65 199.976C211.386 199.656 212.214 199.496 213.134 199.496C213.91 199.496 214.626 199.62 215.282 199.868C215.938 200.116 216.502 200.48 216.974 200.96C217.446 201.432 217.814 202.016 218.078 202.712C218.35 203.4 218.486 204.188 218.486 205.076C218.486 205.524 218.438 205.828 218.342 205.988C218.246 206.14 218.062 206.216 217.79 206.216H210.17ZM223.506 201.824C223.89 201.088 224.346 200.512 224.874 200.096C225.402 199.672 226.026 199.46 226.746 199.46C227.314 199.46 227.77 199.584 228.114 199.832L227.922 202.052C227.882 202.196 227.822 202.3 227.742 202.364C227.67 202.42 227.57 202.448 227.442 202.448C227.322 202.448 227.142 202.428 226.902 202.388C226.67 202.348 226.442 202.328 226.218 202.328C225.89 202.328 225.598 202.376 225.342 202.472C225.086 202.568 224.854 202.708 224.646 202.892C224.446 203.068 224.266 203.284 224.106 203.54C223.954 203.796 223.81 204.088 223.674 204.416V212H220.71V199.688H222.45C222.754 199.688 222.966 199.744 223.086 199.856C223.206 199.96 223.286 200.152 223.326 200.432L223.506 201.824Z" fill="white"/>
<g filter="url(#filter0_f)">
<path d="M170.317 224.722C170.226 230.329 142.674 238.965 142.674 238.965C142.674 238.965 115.399 230.351 115.505 223.836C115.578 219.324 127.907 215.864 143.043 216.109C158.179 216.353 170.39 220.21 170.317 224.722Z" fill="black" fill-opacity="0.7"/>
</g>
<path d="M162.45 203.843C162.45 216.944 142.882 236 142.882 236C142.882 236 123.314 218.135 123.314 203.843C123.314 192.989 132.075 183 142.882 183C153.69 183 162.45 192.989 162.45 203.843Z" fill="#A61D24"/>
<path d="M137.259 201.24C138.764 204.187 141.189 206.604 144.147 208.104L146.447 205.812C146.739 205.521 147.147 205.438 147.513 205.552C148.684 205.938 149.938 206.146 151.245 206.146C151.522 206.146 151.788 206.256 151.984 206.451C152.18 206.646 152.29 206.911 152.29 207.187V210.833C152.29 211.11 152.18 211.375 151.984 211.57C151.788 211.765 151.522 211.875 151.245 211.875C146.532 211.875 142.012 210.009 138.679 206.688C135.347 203.367 133.475 198.863 133.475 194.167C133.475 193.89 133.585 193.625 133.781 193.43C133.977 193.235 134.243 193.125 134.52 193.125H138.178C138.456 193.125 138.722 193.235 138.918 193.43C139.114 193.625 139.224 193.89 139.224 194.167C139.224 195.469 139.433 196.719 139.82 197.885C139.935 198.25 139.851 198.656 139.558 198.948L137.259 201.24Z" fill="white"/>
<g filter="url(#filter1_f)">
<path d="M281.957 191.251C281.303 196.821 253.117 202.655 253.117 202.655C253.117 202.655 226.941 191.357 227.7 184.885C228.226 180.403 240.798 178.195 255.781 179.952C270.763 181.71 282.483 186.769 281.957 191.251Z" fill="black" fill-opacity="0.7"/>
</g>
<path d="M274.416 166.433C274.416 179.904 254.208 199.5 254.208 199.5C254.208 199.5 234 181.129 234 166.433C234 155.272 243.047 145 254.208 145C265.368 145 274.416 155.272 274.416 166.433Z" fill="#FFC700"/>
<path d="M253.595 151.572C254.894 151.572 256.14 152.088 257.059 153.007C257.977 153.926 258.494 155.172 258.494 156.471C258.494 157.77 257.977 159.016 257.059 159.935C256.14 160.854 254.894 161.37 253.595 161.37C252.295 161.37 251.049 160.854 250.131 159.935C249.212 159.016 248.696 157.77 248.696 156.471C248.696 155.172 249.212 153.926 250.131 153.007C251.049 152.088 252.295 151.572 253.595 151.572ZM253.595 163.819C259.008 163.819 263.392 166.012 263.392 168.718V171.168H243.797V168.718C243.797 166.012 248.181 163.819 253.595 163.819Z" fill="white"/>
<rect x="225" y="172" width="58" height="16" rx="3" fill="#FFC700"/>
<path d="M233.001 174.666C232.028 174.666 231.096 175.052 230.408 175.74C229.72 176.428 229.334 177.36 229.334 178.333C229.334 178.666 229.394 178.999 229.481 179.333H232.201L233.047 177.086C233.247 176.553 234.034 176.499 234.287 177.086L235.667 180.666L236.061 179.719C236.147 179.499 236.381 179.333 236.667 179.333H242.521C242.607 178.999 242.667 178.666 242.667 178.333C242.667 177.36 242.281 176.428 241.593 175.74C240.906 175.052 239.973 174.666 239.001 174.666C237.761 174.666 236.667 175.286 236.001 176.226C235.334 175.286 234.241 174.666 233.001 174.666ZM230.001 180.333C229.824 180.333 229.654 180.403 229.529 180.528C229.404 180.653 229.334 180.823 229.334 180.999C229.334 181.176 229.404 181.346 229.529 181.471C229.654 181.596 229.824 181.666 230.001 181.666H231.627L235.334 185.333C236.001 185.933 236.001 185.933 236.667 185.333L240.374 181.666H242.001C242.177 181.666 242.347 181.596 242.472 181.471C242.597 181.346 242.667 181.176 242.667 180.999C242.667 180.823 242.597 180.653 242.472 180.528C242.347 180.403 242.177 180.333 242.001 180.333H236.934L236.314 181.866C236.047 182.539 235.281 182.446 235.034 181.886L233.667 178.333L233.027 179.886C232.927 180.139 232.701 180.333 232.401 180.333H230.001Z" fill="white"/>
<path d="M257.772 179.467C257.619 179.267 257.432 179.093 257.259 178.92C256.812 178.52 256.306 178.233 255.879 177.813C254.886 176.84 254.666 175.233 255.299 174C254.666 174.153 254.112 174.5 253.639 174.88C251.912 176.267 251.232 178.713 252.046 180.813C252.072 180.88 252.099 180.947 252.099 181.033C252.099 181.18 251.999 181.313 251.866 181.367C251.712 181.433 251.552 181.393 251.426 181.287C251.386 181.253 251.359 181.22 251.332 181.173C250.579 180.22 250.459 178.853 250.966 177.76C249.852 178.667 249.246 180.2 249.332 181.647C249.372 181.98 249.412 182.313 249.526 182.647C249.619 183.047 249.799 183.447 249.999 183.8C250.719 184.953 251.966 185.78 253.306 185.947C254.732 186.127 256.259 185.867 257.352 184.88C258.572 183.773 258.999 182 258.372 180.48L258.286 180.307C258.146 180 257.772 179.467 257.772 179.467ZM255.666 183.667C255.479 183.827 255.172 184 254.932 184.067C254.186 184.333 253.439 183.96 252.999 183.52C253.792 183.333 254.266 182.747 254.406 182.153C254.519 181.62 254.306 181.18 254.219 180.667C254.139 180.173 254.152 179.753 254.332 179.293C254.459 179.547 254.592 179.8 254.752 180C255.266 180.667 256.072 180.96 256.246 181.867C256.272 181.96 256.286 182.053 256.286 182.153C256.306 182.7 256.066 183.3 255.666 183.667Z" fill="white"/>
<path d="M270.667 174L269.333 175.333V176.667H267.333C266.567 176.667 266.08 177.333 266 178L265.333 184.667C265.253 185.333 265.693 186 266.667 186H277.333C278.307 186 278.747 185.333 278.667 184.667L278 178C277.92 177.333 277.373 176.667 276.667 176.667H274.667V175.333L273.333 174H270.667ZM270.667 175.333H273.333V176.667H270.667V175.333ZM271.333 178.667H272.667V180.667H274.667V182H272.667V184H271.333V182H269.333V180.667H271.333V178.667Z" fill="white"/>
<g filter="url(#filter2_f)">
<path d="M205.957 109.251C205.303 114.821 177.117 120.655 177.117 120.655C177.117 120.655 150.941 109.357 151.7 102.885C152.226 98.4031 164.798 96.1945 179.781 97.9524C194.763 99.7102 206.483 104.769 205.957 109.251Z" fill="black" fill-opacity="0.7"/>
</g>
<path d="M198.416 84.4326C198.416 97.9045 178.208 117.5 178.208 117.5C178.208 117.5 158 99.1292 158 84.4326C158 73.2721 167.047 63 178.208 63C189.368 63 198.416 73.2721 198.416 84.4326Z" fill="#595959"/>
<path d="M177.595 69.5723C178.894 69.5723 180.14 70.0884 181.059 71.0071C181.977 71.9258 182.494 73.1719 182.494 74.4711C182.494 75.7704 181.977 77.0165 181.059 77.9352C180.14 78.8539 178.894 79.37 177.595 79.37C176.295 79.37 175.049 78.8539 174.131 77.9352C173.212 77.0165 172.696 75.7704 172.696 74.4711C172.696 73.1719 173.212 71.9258 174.131 71.0071C175.049 70.0884 176.295 69.5723 177.595 69.5723ZM177.595 81.8195C183.008 81.8195 187.392 84.0117 187.392 86.7183V89.1678H167.797V86.7183C167.797 84.0117 172.181 81.8195 177.595 81.8195Z" fill="white"/>
<rect x="167" y="90" width="22" height="16" rx="3" fill="#595959"/>
<path d="M176.667 92L175.333 93.3333V94.6667H173.333C172.567 94.6667 172.08 95.3333 172 96L171.333 102.667C171.253 103.333 171.693 104 172.667 104H183.333C184.307 104 184.747 103.333 184.667 102.667L184 96C183.92 95.3333 183.373 94.6667 182.667 94.6667H180.667V93.3333L179.333 92H176.667ZM176.667 93.3333H179.333V94.6667H176.667V93.3333ZM177.333 96.6667H178.667V98.6667H180.667V100H178.667V102H177.333V100H175.333V98.6667H177.333V96.6667Z" fill="#F0F0F0"/>
<g filter="url(#filter3_f)">
<path d="M89.9569 52.251C89.3034 57.8206 61.1171 63.6553 61.1171 63.6553C61.1171 63.6553 34.9409 52.3567 35.7002 45.8853C36.226 41.4031 48.7981 39.1945 63.7807 40.9524C78.7633 42.7102 90.4828 47.7688 89.9569 52.251Z" fill="black" fill-opacity="0.7"/>
</g>
<path d="M82.4157 27.4326C82.4157 40.9045 62.2079 60.5 62.2079 60.5C62.2079 60.5 42 42.1292 42 27.4326C42 16.2721 51.0474 6 62.2079 6C73.3684 6 82.4157 16.2721 82.4157 27.4326Z" fill="#FFC700"/>
<path d="M61.5946 12.5723C62.8939 12.5723 64.1399 13.0884 65.0587 14.0071C65.9774 14.9258 66.4935 16.1719 66.4935 17.4711C66.4935 18.7704 65.9774 20.0165 65.0587 20.9352C64.1399 21.8539 62.8939 22.37 61.5946 22.37C60.2954 22.37 59.0493 21.8539 58.1306 20.9352C57.2119 20.0165 56.6958 18.7704 56.6958 17.4711C56.6958 16.1719 57.2119 14.9258 58.1306 14.0071C59.0493 13.0884 60.2954 12.5723 61.5946 12.5723ZM61.5946 24.8195C67.0079 24.8195 71.3924 27.0117 71.3924 29.7183V32.1678H51.7969V29.7183C51.7969 27.0117 56.1814 24.8195 61.5946 24.8195Z" fill="white"/>
<rect x="33" y="33" width="58" height="16" rx="3" fill="#FFC700"/>
<path d="M41.0007 35.666C40.0282 35.666 39.0956 36.0523 38.4079 36.74C37.7203 37.4276 37.334 38.3602 37.334 39.3327C37.334 39.666 37.394 39.9993 37.4807 40.3327H40.2007L41.0473 38.086C41.2473 37.5527 42.034 37.4993 42.2873 38.086L43.6673 41.666L44.0607 40.7193C44.1473 40.4993 44.3807 40.3327 44.6673 40.3327H50.5207C50.6073 39.9993 50.6673 39.666 50.6673 39.3327C50.6673 38.3602 50.281 37.4276 49.5934 36.74C48.9057 36.0523 47.9731 35.666 47.0007 35.666C45.7607 35.666 44.6673 36.286 44.0007 37.226C43.334 36.286 42.2407 35.666 41.0007 35.666ZM38.0007 41.3327C37.8238 41.3327 37.6543 41.4029 37.5292 41.5279C37.4042 41.653 37.334 41.8225 37.334 41.9993C37.334 42.1762 37.4042 42.3457 37.5292 42.4708C37.6543 42.5958 37.8238 42.666 38.0007 42.666H39.6273L43.334 46.3327C44.0007 46.9327 44.0007 46.9327 44.6673 46.3327L48.374 42.666H50.0007C50.1775 42.666 50.347 42.5958 50.4721 42.4708C50.5971 42.3457 50.6673 42.1762 50.6673 41.9993C50.6673 41.8225 50.5971 41.653 50.4721 41.5279C50.347 41.4029 50.1775 41.3327 50.0007 41.3327H44.934L44.314 42.866C44.0473 43.5393 43.2807 43.446 43.034 42.886L41.6673 39.3327L41.0273 40.886C40.9273 41.1393 40.7007 41.3327 40.4007 41.3327H38.0007Z" fill="white"/>
<path d="M65.7724 40.4667C65.6191 40.2667 65.4324 40.0933 65.2591 39.92C64.8124 39.52 64.3057 39.2333 63.8791 38.8133C62.8857 37.84 62.6657 36.2333 63.2991 35C62.6657 35.1533 62.1124 35.5 61.6391 35.88C59.9124 37.2667 59.2324 39.7133 60.0457 41.8133C60.0724 41.88 60.0991 41.9467 60.0991 42.0333C60.0991 42.18 59.9991 42.3133 59.8657 42.3667C59.7124 42.4333 59.5524 42.3933 59.4257 42.2867C59.3857 42.2533 59.3591 42.22 59.3324 42.1733C58.5791 41.22 58.4591 39.8533 58.9657 38.76C57.8524 39.6667 57.2457 41.2 57.3324 42.6467C57.3724 42.98 57.4124 43.3133 57.5257 43.6467C57.6191 44.0467 57.7991 44.4467 57.9991 44.8C58.7191 45.9533 59.9657 46.78 61.3057 46.9467C62.7324 47.1267 64.2591 46.8667 65.3524 45.88C66.5724 44.7733 66.9991 43 66.3724 41.48L66.2857 41.3067C66.1457 41 65.7724 40.4667 65.7724 40.4667ZM63.6657 44.6667C63.4791 44.8267 63.1724 45 62.9324 45.0667C62.1857 45.3333 61.4391 44.96 60.9991 44.52C61.7924 44.3333 62.2657 43.7467 62.4057 43.1533C62.5191 42.62 62.3057 42.18 62.2191 41.6667C62.1391 41.1733 62.1524 40.7533 62.3324 40.2933C62.4591 40.5467 62.5924 40.8 62.7524 41C63.2657 41.6667 64.0724 41.96 64.2457 42.8667C64.2724 42.96 64.2857 43.0533 64.2857 43.1533C64.3057 43.7 64.0657 44.3 63.6657 44.6667Z" fill="white"/>
<path d="M78.6668 35L77.3334 36.3333V37.6667H75.3334C74.5668 37.6667 74.0801 38.3333 74.0001 39L73.3334 45.6667C73.2534 46.3333 73.6934 47 74.6668 47H85.3334C86.3068 47 86.7468 46.3333 86.6668 45.6667L86.0001 39C85.9201 38.3333 85.3734 37.6667 84.6668 37.6667H82.6668V36.3333L81.3334 35H78.6668ZM78.6668 36.3333H81.3334V37.6667H78.6668V36.3333ZM79.3334 39.6667H80.6668V41.6667H82.6668V43H80.6668V45H79.3334V43H77.3334V41.6667H79.3334V39.6667Z" fill="white"/>
<g filter="url(#filter4_f)">
<path d="M119.957 270.251C119.303 275.821 91.1171 281.655 91.1171 281.655C91.1171 281.655 64.9409 270.357 65.7002 263.885C66.226 259.403 78.7981 257.195 93.7807 258.952C108.763 260.71 120.483 265.769 119.957 270.251Z" fill="black" fill-opacity="0.7"/>
</g>
<path d="M112.416 245.433C112.416 258.904 92.2079 278.5 92.2079 278.5C92.2079 278.5 72 260.129 72 245.433C72 234.272 81.0474 224 92.2079 224C103.368 224 112.416 234.272 112.416 245.433Z" fill="#595959"/>
<path d="M91.5946 230.572C92.8939 230.572 94.1399 231.088 95.0587 232.007C95.9774 232.926 96.4935 234.172 96.4935 235.471C96.4935 236.77 95.9774 238.016 95.0587 238.935C94.1399 239.854 92.8939 240.37 91.5946 240.37C90.2954 240.37 89.0493 239.854 88.1306 238.935C87.2119 238.016 86.6958 236.77 86.6958 235.471C86.6958 234.172 87.2119 232.926 88.1306 232.007C89.0493 231.088 90.2954 230.572 91.5946 230.572ZM91.5946 242.819C97.0079 242.819 101.392 245.012 101.392 247.718V250.168H81.7969V247.718C81.7969 245.012 86.1814 242.819 91.5946 242.819Z" fill="white"/>
<rect x="81" y="251" width="22" height="16" rx="3" fill="#595959"/>
<path d="M95.7724 258.467C95.6191 258.267 95.4324 258.093 95.2591 257.92C94.8124 257.52 94.3057 257.233 93.8791 256.813C92.8857 255.84 92.6657 254.233 93.2991 253C92.6657 253.153 92.1124 253.5 91.6391 253.88C89.9124 255.267 89.2324 257.713 90.0457 259.813C90.0724 259.88 90.0991 259.947 90.0991 260.033C90.0991 260.18 89.9991 260.313 89.8657 260.367C89.7124 260.433 89.5524 260.393 89.4257 260.287C89.3857 260.253 89.3591 260.22 89.3324 260.173C88.5791 259.22 88.4591 257.853 88.9657 256.76C87.8524 257.667 87.2457 259.2 87.3324 260.647C87.3724 260.98 87.4124 261.313 87.5257 261.647C87.6191 262.047 87.7991 262.447 87.9991 262.8C88.7191 263.953 89.9657 264.78 91.3057 264.947C92.7324 265.127 94.2591 264.867 95.3524 263.88C96.5724 262.773 96.9991 261 96.3724 259.48L96.2857 259.307C96.1457 259 95.7724 258.467 95.7724 258.467ZM93.6657 262.667C93.4791 262.827 93.1724 263 92.9324 263.067C92.1857 263.333 91.4391 262.96 90.9991 262.52C91.7924 262.333 92.2657 261.747 92.4057 261.153C92.5191 260.62 92.3057 260.18 92.2191 259.667C92.1391 259.173 92.1524 258.753 92.3324 258.293C92.4591 258.547 92.5924 258.8 92.7524 259C93.2657 259.667 94.0724 259.96 94.2457 260.867C94.2724 260.96 94.2857 261.053 94.2857 261.153C94.3057 261.7 94.0657 262.3 93.6657 262.667Z" fill="#F0F0F0"/>
<g filter="url(#filter5_f)">
<path d="M304.957 288.251C304.303 293.821 276.117 299.655 276.117 299.655C276.117 299.655 249.941 288.357 250.7 281.885C251.226 277.403 263.798 275.195 278.781 276.952C293.763 278.71 305.483 283.769 304.957 288.251Z" fill="black" fill-opacity="0.7"/>
</g>
<path d="M297.416 263.433C297.416 276.904 277.208 296.5 277.208 296.5C277.208 296.5 257 278.129 257 263.433C257 252.272 266.047 242 277.208 242C288.368 242 297.416 252.272 297.416 263.433Z" fill="#FFC700"/>
<path d="M276.595 248.572C277.894 248.572 279.14 249.088 280.059 250.007C280.977 250.926 281.494 252.172 281.494 253.471C281.494 254.77 280.977 256.016 280.059 256.935C279.14 257.854 277.894 258.37 276.595 258.37C275.295 258.37 274.049 257.854 273.131 256.935C272.212 256.016 271.696 254.77 271.696 253.471C271.696 252.172 272.212 250.926 273.131 250.007C274.049 249.088 275.295 248.572 276.595 248.572ZM276.595 260.819C282.008 260.819 286.392 263.012 286.392 265.718V268.168H266.797V265.718C266.797 263.012 271.181 260.819 276.595 260.819Z" fill="white"/>
<rect x="248" y="269" width="58" height="16" rx="3" fill="#FFC700"/>
<path d="M256.001 271.666C255.028 271.666 254.096 272.052 253.408 272.74C252.72 273.428 252.334 274.36 252.334 275.333C252.334 275.666 252.394 275.999 252.481 276.333H255.201L256.047 274.086C256.247 273.553 257.034 273.499 257.287 274.086L258.667 277.666L259.061 276.719C259.147 276.499 259.381 276.333 259.667 276.333H265.521C265.607 275.999 265.667 275.666 265.667 275.333C265.667 274.36 265.281 273.428 264.593 272.74C263.906 272.052 262.973 271.666 262.001 271.666C260.761 271.666 259.667 272.286 259.001 273.226C258.334 272.286 257.241 271.666 256.001 271.666ZM253.001 277.333C252.824 277.333 252.654 277.403 252.529 277.528C252.404 277.653 252.334 277.823 252.334 277.999C252.334 278.176 252.404 278.346 252.529 278.471C252.654 278.596 252.824 278.666 253.001 278.666H254.627L258.334 282.333C259.001 282.933 259.001 282.933 259.667 282.333L263.374 278.666H265.001C265.177 278.666 265.347 278.596 265.472 278.471C265.597 278.346 265.667 278.176 265.667 277.999C265.667 277.823 265.597 277.653 265.472 277.528C265.347 277.403 265.177 277.333 265.001 277.333H259.934L259.314 278.866C259.047 279.539 258.281 279.446 258.034 278.886L256.667 275.333L256.027 276.886C255.927 277.139 255.701 277.333 255.401 277.333H253.001Z" fill="white"/>
<path d="M280.772 276.467C280.619 276.267 280.432 276.093 280.259 275.92C279.812 275.52 279.306 275.233 278.879 274.813C277.886 273.84 277.666 272.233 278.299 271C277.666 271.153 277.112 271.5 276.639 271.88C274.912 273.267 274.232 275.713 275.046 277.813C275.072 277.88 275.099 277.947 275.099 278.033C275.099 278.18 274.999 278.313 274.866 278.367C274.712 278.433 274.552 278.393 274.426 278.287C274.386 278.253 274.359 278.22 274.332 278.173C273.579 277.22 273.459 275.853 273.966 274.76C272.852 275.667 272.246 277.2 272.332 278.647C272.372 278.98 272.412 279.313 272.526 279.647C272.619 280.047 272.799 280.447 272.999 280.8C273.719 281.953 274.966 282.78 276.306 282.947C277.732 283.127 279.259 282.867 280.352 281.88C281.572 280.773 281.999 279 281.372 277.48L281.286 277.307C281.146 277 280.772 276.467 280.772 276.467ZM278.666 280.667C278.479 280.827 278.172 281 277.932 281.067C277.186 281.333 276.439 280.96 275.999 280.52C276.792 280.333 277.266 279.747 277.406 279.153C277.519 278.62 277.306 278.18 277.219 277.667C277.139 277.173 277.152 276.753 277.332 276.293C277.459 276.547 277.592 276.8 277.752 277C278.266 277.667 279.072 277.96 279.246 278.867C279.272 278.96 279.286 279.053 279.286 279.153C279.306 279.7 279.066 280.3 278.666 280.667Z" fill="white"/>
<path d="M293.667 271L292.333 272.333V273.667H290.333C289.567 273.667 289.08 274.333 289 275L288.333 281.667C288.253 282.333 288.693 283 289.667 283H300.333C301.307 283 301.747 282.333 301.667 281.667L301 275C300.92 274.333 300.373 273.667 299.667 273.667H297.667V272.333L296.333 271H293.667ZM293.667 272.333H296.333V273.667H293.667V272.333ZM294.333 275.667H295.667V277.667H297.667V279H295.667V281H294.333V279H292.333V277.667H294.333V275.667Z" fill="white"/>
<g filter="url(#filter6_f)">
<path d="M117.957 441.251C117.303 446.821 89.1171 452.655 89.1171 452.655C89.1171 452.655 62.9409 441.357 63.7002 434.885C64.226 430.403 76.7981 428.195 91.7807 429.952C106.763 431.71 118.483 436.769 117.957 441.251Z" fill="black" fill-opacity="0.7"/>
</g>
<path d="M110.416 416.433C110.416 429.904 90.2079 449.5 90.2079 449.5C90.2079 449.5 70 431.129 70 416.433C70 405.272 79.0474 395 90.2079 395C101.368 395 110.416 405.272 110.416 416.433Z" fill="#434343"/>
<path d="M89.5946 401.572C90.8939 401.572 92.1399 402.088 93.0587 403.007C93.9774 403.926 94.4935 405.172 94.4935 406.471C94.4935 407.77 93.9774 409.016 93.0587 409.935C92.1399 410.854 90.8939 411.37 89.5946 411.37C88.2954 411.37 87.0493 410.854 86.1306 409.935C85.2119 409.016 84.6958 407.77 84.6958 406.471C84.6958 405.172 85.2119 403.926 86.1306 403.007C87.0493 402.088 88.2954 401.572 89.5946 401.572ZM89.5946 413.819C95.0079 413.819 99.3924 416.012 99.3924 418.718V421.168H79.7969V418.718C79.7969 416.012 84.1814 413.819 89.5946 413.819Z" fill="white"/>
<rect x="70" y="422" width="40" height="16" rx="3" fill="#434343"/>
<path d="M78.0007 424.666C77.0282 424.666 76.0956 425.052 75.4079 425.74C74.7203 426.428 74.334 427.36 74.334 428.333C74.334 428.666 74.394 428.999 74.4807 429.333H77.2007L78.0473 427.086C78.2473 426.553 79.034 426.499 79.2873 427.086L80.6673 430.666L81.0607 429.719C81.1473 429.499 81.3807 429.333 81.6673 429.333H87.5207C87.6073 428.999 87.6673 428.666 87.6673 428.333C87.6673 427.36 87.281 426.428 86.5934 425.74C85.9057 425.052 84.9731 424.666 84.0007 424.666C82.7607 424.666 81.6673 425.286 81.0007 426.226C80.334 425.286 79.2407 424.666 78.0007 424.666ZM75.0007 430.333C74.8238 430.333 74.6543 430.403 74.5292 430.528C74.4042 430.653 74.334 430.823 74.334 430.999C74.334 431.176 74.4042 431.346 74.5292 431.471C74.6543 431.596 74.8238 431.666 75.0007 431.666H76.6273L80.334 435.333C81.0007 435.933 81.0007 435.933 81.6673 435.333L85.374 431.666H87.0007C87.1775 431.666 87.347 431.596 87.4721 431.471C87.5971 431.346 87.6673 431.176 87.6673 430.999C87.6673 430.823 87.5971 430.653 87.4721 430.528C87.347 430.403 87.1775 430.333 87.0007 430.333H81.934L81.314 431.866C81.0473 432.539 80.2807 432.446 80.034 431.886L78.6673 428.333L78.0273 429.886C77.9273 430.139 77.7007 430.333 77.4007 430.333H75.0007Z" fill="#D9D9D9"/>
<path d="M102.772 429.467C102.619 429.267 102.432 429.093 102.259 428.92C101.812 428.52 101.306 428.233 100.879 427.813C99.8857 426.84 99.6657 425.233 100.299 424C99.6657 424.153 99.1124 424.5 98.6391 424.88C96.9124 426.267 96.2324 428.713 97.0457 430.813C97.0724 430.88 97.0991 430.947 97.0991 431.033C97.0991 431.18 96.9991 431.313 96.8657 431.367C96.7124 431.433 96.5524 431.393 96.4257 431.287C96.3857 431.253 96.3591 431.22 96.3324 431.173C95.5791 430.22 95.4591 428.853 95.9657 427.76C94.8524 428.667 94.2457 430.2 94.3324 431.647C94.3724 431.98 94.4124 432.313 94.5257 432.647C94.6191 433.047 94.7991 433.447 94.9991 433.8C95.7191 434.953 96.9657 435.78 98.3057 435.947C99.7324 436.127 101.259 435.867 102.352 434.88C103.572 433.773 103.999 432 103.372 430.48L103.286 430.307C103.146 430 102.772 429.467 102.772 429.467ZM100.666 433.667C100.479 433.827 100.172 434 99.9324 434.067C99.1857 434.333 98.4391 433.96 97.9991 433.52C98.7924 433.333 99.2657 432.747 99.4057 432.153C99.5191 431.62 99.3057 431.18 99.2191 430.667C99.1391 430.173 99.1524 429.753 99.3324 429.293C99.4591 429.547 99.5924 429.8 99.7524 430C100.266 430.667 101.072 430.96 101.246 431.867C101.272 431.96 101.286 432.053 101.286 432.153C101.306 432.7 101.066 433.3 100.666 433.667Z" fill="#D9D9D9"/>
<g filter="url(#filter7_f)">
<path d="M430.957 403.251C430.303 408.821 402.117 414.655 402.117 414.655C402.117 414.655 375.941 403.357 376.7 396.885C377.226 392.403 389.798 390.195 404.781 391.952C419.763 393.71 431.483 398.769 430.957 403.251Z" fill="black" fill-opacity="0.7"/>
</g>
<path d="M423.416 378.433C423.416 391.904 403.208 411.5 403.208 411.5C403.208 411.5 383 393.129 383 378.433C383 367.272 392.047 357 403.208 357C414.368 357 423.416 367.272 423.416 378.433Z" fill="#434343"/>
<path d="M402.595 363.572C403.894 363.572 405.14 364.088 406.059 365.007C406.977 365.926 407.494 367.172 407.494 368.471C407.494 369.77 406.977 371.016 406.059 371.935C405.14 372.854 403.894 373.37 402.595 373.37C401.295 373.37 400.049 372.854 399.131 371.935C398.212 371.016 397.696 369.77 397.696 368.471C397.696 367.172 398.212 365.926 399.131 365.007C400.049 364.088 401.295 363.572 402.595 363.572ZM402.595 375.819C408.008 375.819 412.392 378.012 412.392 380.718V383.168H392.797V380.718C392.797 378.012 397.181 375.819 402.595 375.819Z" fill="white"/>
<rect x="374" y="384" width="58" height="16" rx="3" fill="#434343"/>
<path d="M382.001 386.666C381.028 386.666 380.096 387.052 379.408 387.74C378.72 388.428 378.334 389.36 378.334 390.333C378.334 390.666 378.394 390.999 378.481 391.333H381.201L382.047 389.086C382.247 388.553 383.034 388.499 383.287 389.086L384.667 392.666L385.061 391.719C385.147 391.499 385.381 391.333 385.667 391.333H391.521C391.607 390.999 391.667 390.666 391.667 390.333C391.667 389.36 391.281 388.428 390.593 387.74C389.906 387.052 388.973 386.666 388.001 386.666C386.761 386.666 385.667 387.286 385.001 388.226C384.334 387.286 383.241 386.666 382.001 386.666ZM379.001 392.333C378.824 392.333 378.654 392.403 378.529 392.528C378.404 392.653 378.334 392.823 378.334 392.999C378.334 393.176 378.404 393.346 378.529 393.471C378.654 393.596 378.824 393.666 379.001 393.666H380.627L384.334 397.333C385.001 397.933 385.001 397.933 385.667 397.333L389.374 393.666H391.001C391.177 393.666 391.347 393.596 391.472 393.471C391.597 393.346 391.667 393.176 391.667 392.999C391.667 392.823 391.597 392.653 391.472 392.528C391.347 392.403 391.177 392.333 391.001 392.333H385.934L385.314 393.866C385.047 394.539 384.281 394.446 384.034 393.886L382.667 390.333L382.027 391.886C381.927 392.139 381.701 392.333 381.401 392.333H379.001Z" fill="#D9D9D9"/>
<path d="M406.772 391.467C406.619 391.267 406.432 391.093 406.259 390.92C405.812 390.52 405.306 390.233 404.879 389.813C403.886 388.84 403.666 387.233 404.299 386C403.666 386.153 403.112 386.5 402.639 386.88C400.912 388.267 400.232 390.713 401.046 392.813C401.072 392.88 401.099 392.947 401.099 393.033C401.099 393.18 400.999 393.313 400.866 393.367C400.712 393.433 400.552 393.393 400.426 393.287C400.386 393.253 400.359 393.22 400.332 393.173C399.579 392.22 399.459 390.853 399.966 389.76C398.852 390.667 398.246 392.2 398.332 393.647C398.372 393.98 398.412 394.313 398.526 394.647C398.619 395.047 398.799 395.447 398.999 395.8C399.719 396.953 400.966 397.78 402.306 397.947C403.732 398.127 405.259 397.867 406.352 396.88C407.572 395.773 407.999 394 407.372 392.48L407.286 392.307C407.146 392 406.772 391.467 406.772 391.467ZM404.666 395.667C404.479 395.827 404.172 396 403.932 396.067C403.186 396.333 402.439 395.96 401.999 395.52C402.792 395.333 403.266 394.747 403.406 394.153C403.519 393.62 403.306 393.18 403.219 392.667C403.139 392.173 403.152 391.753 403.332 391.293C403.459 391.547 403.592 391.8 403.752 392C404.266 392.667 405.072 392.96 405.246 393.867C405.272 393.96 405.286 394.053 405.286 394.153C405.306 394.7 405.066 395.3 404.666 395.667Z" fill="#D9D9D9"/>
<path d="M419.667 386L418.333 387.333V388.667H416.333C415.567 388.667 415.08 389.333 415 390L414.333 396.667C414.253 397.333 414.693 398 415.667 398H426.333C427.307 398 427.747 397.333 427.667 396.667L427 390C426.92 389.333 426.373 388.667 425.667 388.667H423.667V387.333L422.333 386H419.667ZM419.667 387.333H422.333V388.667H419.667V387.333ZM420.333 390.667H421.667V392.667H423.667V394H421.667V396H420.333V394H418.333V392.667H420.333V390.667Z" fill="#D9D9D9"/>
<g filter="url(#filter8_f)">
<path d="M258.957 381.251C258.303 386.821 230.117 392.655 230.117 392.655C230.117 392.655 203.941 381.357 204.7 374.885C205.226 370.403 217.798 368.195 232.781 369.952C247.763 371.71 259.483 376.769 258.957 381.251Z" fill="black" fill-opacity="0.7"/>
</g>
<path d="M251.416 356.433C251.416 369.904 231.208 389.5 231.208 389.5C231.208 389.5 211 371.129 211 356.433C211 345.272 220.047 335 231.208 335C242.368 335 251.416 345.272 251.416 356.433Z" fill="#595959"/>
<path d="M230.595 341.572C231.894 341.572 233.14 342.088 234.059 343.007C234.977 343.926 235.494 345.172 235.494 346.471C235.494 347.77 234.977 349.016 234.059 349.935C233.14 350.854 231.894 351.37 230.595 351.37C229.295 351.37 228.049 350.854 227.131 349.935C226.212 349.016 225.696 347.77 225.696 346.471C225.696 345.172 226.212 343.926 227.131 343.007C228.049 342.088 229.295 341.572 230.595 341.572ZM230.595 353.819C236.008 353.819 240.392 356.012 240.392 358.718V361.168H220.797V358.718C220.797 356.012 225.181 353.819 230.595 353.819Z" fill="white"/>
<rect x="211" y="362" width="40" height="16" rx="3" fill="#595959"/>
<path d="M225.772 369.467C225.619 369.267 225.432 369.093 225.259 368.92C224.812 368.52 224.306 368.233 223.879 367.813C222.886 366.84 222.666 365.233 223.299 364C222.666 364.153 222.112 364.5 221.639 364.88C219.912 366.267 219.232 368.713 220.046 370.813C220.072 370.88 220.099 370.947 220.099 371.033C220.099 371.18 219.999 371.313 219.866 371.367C219.712 371.433 219.552 371.393 219.426 371.287C219.386 371.253 219.359 371.22 219.332 371.173C218.579 370.22 218.459 368.853 218.966 367.76C217.852 368.667 217.246 370.2 217.332 371.647C217.372 371.98 217.412 372.313 217.526 372.647C217.619 373.047 217.799 373.447 217.999 373.8C218.719 374.953 219.966 375.78 221.306 375.947C222.732 376.127 224.259 375.867 225.352 374.88C226.572 373.773 226.999 372 226.372 370.48L226.286 370.307C226.146 370 225.772 369.467 225.772 369.467ZM223.666 373.667C223.479 373.827 223.172 374 222.932 374.067C222.186 374.333 221.439 373.96 220.999 373.52C221.792 373.333 222.266 372.747 222.406 372.153C222.519 371.62 222.306 371.18 222.219 370.667C222.139 370.173 222.152 369.753 222.332 369.293C222.459 369.547 222.592 369.8 222.752 370C223.266 370.667 224.072 370.96 224.246 371.867C224.272 371.96 224.286 372.053 224.286 372.153C224.306 372.7 224.066 373.3 223.666 373.667Z" fill="#F0F0F0"/>
<path d="M238.667 364L237.333 365.333V366.667H235.333C234.567 366.667 234.08 367.333 234 368L233.333 374.667C233.253 375.333 233.693 376 234.667 376H245.333C246.307 376 246.747 375.333 246.667 374.667L246 368C245.92 367.333 245.373 366.667 244.667 366.667H242.667V365.333L241.333 364H238.667ZM238.667 365.333H241.333V366.667H238.667V365.333ZM239.333 368.667H240.667V370.667H242.667V372H240.667V374H239.333V372H237.333V370.667H239.333V368.667Z" fill="#F0F0F0"/>
<circle cx="361" cy="125" r="16" fill="#A61D24"/>
<path d="M365.5 117.83C363.76 117.83 362.09 118.64 361 119.9C359.91 118.64 358.24 117.83 356.5 117.83C353.42 117.83 351 120.24 351 123.33C351 127.1 354.4 130.19 359.55 134.86L361 136.17L362.45 134.86C367.6 130.19 371 127.1 371 123.33C371 120.24 368.58 117.83 365.5 117.83ZM361 132.83V128.83H358L361 121.83V125.83H364" fill="white"/>
<path d="M352.4 153.632L350.992 149.784C350.923 149.613 350.851 149.411 350.776 149.176C350.701 148.941 350.627 148.688 350.552 148.416C350.483 148.688 350.411 148.944 350.336 149.184C350.261 149.419 350.189 149.624 350.12 149.8L348.72 153.632H352.4ZM356.2 158H354.536C354.349 158 354.197 157.955 354.08 157.864C353.963 157.768 353.875 157.651 353.816 157.512L352.952 155.152H348.16L347.296 157.512C347.253 157.635 347.171 157.747 347.048 157.848C346.925 157.949 346.773 158 346.592 158H344.912L349.464 146.432H351.656L356.2 158ZM359.557 148.144V151.352H363.605V153.008H359.557V156.28H364.693V158H357.397V146.432H364.693V148.144H359.557ZM376.873 152.216C376.873 153.064 376.731 153.843 376.449 154.552C376.166 155.261 375.769 155.872 375.257 156.384C374.745 156.896 374.129 157.293 373.409 157.576C372.689 157.859 371.889 158 371.009 158H366.601V146.432H371.009C371.889 146.432 372.689 146.576 373.409 146.864C374.129 147.147 374.745 147.544 375.257 148.056C375.769 148.563 376.166 149.171 376.449 149.88C376.731 150.589 376.873 151.368 376.873 152.216ZM374.665 152.216C374.665 151.581 374.579 151.013 374.409 150.512C374.243 150.005 374.001 149.579 373.681 149.232C373.366 148.88 372.982 148.611 372.529 148.424C372.081 148.237 371.574 148.144 371.009 148.144H368.761V156.288H371.009C371.574 156.288 372.081 156.195 372.529 156.008C372.982 155.821 373.366 155.555 373.681 155.208C374.001 154.856 374.243 154.429 374.409 153.928C374.579 153.421 374.665 152.851 374.665 152.216Z" fill="white"/>
<circle cx="17" cy="24" r="16" fill="#A61D24"/>
<path d="M21.5 16.8301C19.76 16.8301 18.09 17.6401 17 18.9001C15.91 17.6401 14.24 16.8301 12.5 16.8301C9.42 16.8301 7 19.2401 7 22.3301C7 26.1001 10.4 29.1901 15.55 33.8601L17 35.1701L18.45 33.8601C23.6 29.1901 27 26.1001 27 22.3301C27 19.2401 24.58 16.8301 21.5 16.8301ZM17 31.8301V27.8301H14L17 20.8301V24.8301H20" fill="white"/>
<path d="M8.4 52.632L6.992 48.784C6.92267 48.6133 6.85067 48.4107 6.776 48.176C6.70133 47.9413 6.62667 47.688 6.552 47.416C6.48267 47.688 6.41067 47.944 6.336 48.184C6.26133 48.4187 6.18933 48.624 6.12 48.8L4.72 52.632H8.4ZM12.2 57H10.536C10.3493 57 10.1973 56.9547 10.08 56.864C9.96267 56.768 9.87467 56.6507 9.816 56.512L8.952 54.152H4.16L3.296 56.512C3.25333 56.6347 3.17067 56.7467 3.048 56.848C2.92533 56.9493 2.77333 57 2.592 57H0.912L5.464 45.432H7.656L12.2 57ZM15.5574 47.144V50.352H19.6054V52.008H15.5574V55.28H20.6934V57H13.3974V45.432H20.6934V47.144H15.5574ZM32.8725 51.216C32.8725 52.064 32.7312 52.8427 32.4485 53.552C32.1658 54.2613 31.7685 54.872 31.2565 55.384C30.7445 55.896 30.1285 56.2933 29.4085 56.576C28.6885 56.8587 27.8885 57 27.0085 57H22.6005V45.432H27.0085C27.8885 45.432 28.6885 45.576 29.4085 45.864C30.1285 46.1467 30.7445 46.544 31.2565 47.056C31.7685 47.5627 32.1658 48.1707 32.4485 48.88C32.7312 49.5893 32.8725 50.368 32.8725 51.216ZM30.6645 51.216C30.6645 50.5813 30.5792 50.0133 30.4085 49.512C30.2432 49.0053 30.0005 48.5787 29.6805 48.232C29.3658 47.88 28.9818 47.6107 28.5285 47.424C28.0805 47.2373 27.5738 47.144 27.0085 47.144H24.7605V55.288H27.0085C27.5738 55.288 28.0805 55.1947 28.5285 55.008C28.9818 54.8213 29.3658 54.5547 29.6805 54.208C30.0005 53.856 30.2432 53.4293 30.4085 52.928C30.5792 52.4213 30.6645 51.8507 30.6645 51.216Z" fill="white"/>
<defs>
<filter id="filter0_f" x="101.504" y="202.096" width="82.8128" height="50.8679" filterUnits="userSpaceOnUse" color-interpolation-filters="sRGB">
<feFlood flood-opacity="0" result="BackgroundImageFix"/>
<feBlend mode="normal" in="SourceGraphic" in2="BackgroundImageFix" result="shape"/>
<feGaussianBlur stdDeviation="7" result="effect1_foregroundBlur"/>
</filter>
<filter id="filter1_f" x="213.684" y="165.348" width="82.29" height="51.3071" filterUnits="userSpaceOnUse" color-interpolation-filters="sRGB">
<feFlood flood-opacity="0" result="BackgroundImageFix"/>
<feBlend mode="normal" in="SourceGraphic" in2="BackgroundImageFix" result="shape"/>
<feGaussianBlur stdDeviation="7" result="effect1_foregroundBlur"/>
</filter>
<filter id="filter2_f" x="137.684" y="83.3477" width="82.29" height="51.3071" filterUnits="userSpaceOnUse" color-interpolation-filters="sRGB">
<feFlood flood-opacity="0" result="BackgroundImageFix"/>
<feBlend mode="normal" in="SourceGraphic" in2="BackgroundImageFix" result="shape"/>
<feGaussianBlur stdDeviation="7" result="effect1_foregroundBlur"/>
</filter>
<filter id="filter3_f" x="21.6836" y="26.3477" width="82.29" height="51.3071" filterUnits="userSpaceOnUse" color-interpolation-filters="sRGB">
<feFlood flood-opacity="0" result="BackgroundImageFix"/>
<feBlend mode="normal" in="SourceGraphic" in2="BackgroundImageFix" result="shape"/>
<feGaussianBlur stdDeviation="7" result="effect1_foregroundBlur"/>
</filter>
<filter id="filter4_f" x="51.6836" y="244.348" width="82.29" height="51.3071" filterUnits="userSpaceOnUse" color-interpolation-filters="sRGB">
<feFlood flood-opacity="0" result="BackgroundImageFix"/>
<feBlend mode="normal" in="SourceGraphic" in2="BackgroundImageFix" result="shape"/>
<feGaussianBlur stdDeviation="7" result="effect1_foregroundBlur"/>
</filter>
<filter id="filter5_f" x="236.684" y="262.348" width="82.29" height="51.3071" filterUnits="userSpaceOnUse" color-interpolation-filters="sRGB">
<feFlood flood-opacity="0" result="BackgroundImageFix"/>
<feBlend mode="normal" in="SourceGraphic" in2="BackgroundImageFix" result="shape"/>
<feGaussianBlur stdDeviation="7" result="effect1_foregroundBlur"/>
</filter>
<filter id="filter6_f" x="49.6836" y="415.348" width="82.29" height="51.3071" filterUnits="userSpaceOnUse" color-interpolation-filters="sRGB">
<feFlood flood-opacity="0" result="BackgroundImageFix"/>
<feBlend mode="normal" in="SourceGraphic" in2="BackgroundImageFix" result="shape"/>
<feGaussianBlur stdDeviation="7" result="effect1_foregroundBlur"/>
</filter>
<filter id="filter7_f" x="362.684" y="377.348" width="82.29" height="51.3071" filterUnits="userSpaceOnUse" color-interpolation-filters="sRGB">
<feFlood flood-opacity="0" result="BackgroundImageFix"/>
<feBlend mode="normal" in="SourceGraphic" in2="BackgroundImageFix" result="shape"/>
<feGaussianBlur stdDeviation="7" result="effect1_foregroundBlur"/>
</filter>
<filter id="filter8_f" x="190.684" y="355.348" width="82.29" height="51.3071" filterUnits="userSpaceOnUse" color-interpolation-filters="sRGB">
<feFlood flood-opacity="0" result="BackgroundImageFix"/>
<feBlend mode="normal" in="SourceGraphic" in2="BackgroundImageFix" result="shape"/>
<feGaussianBlur stdDeviation="7" result="effect1_foregroundBlur"/>
</filter>
</defs>
</svg>
