<svg width="56" height="56" viewBox="0 0 56 56" fill="none" xmlns="http://www.w3.org/2000/svg">
<circle cx="28" cy="28" r="28" fill="#222D39"/>
<path d="M28.0013 14.666C29.0622 14.666 30.0796 15.0874 30.8297 15.8376C31.5799 16.5877 32.0013 17.6051 32.0013 18.666V26.666C32.0013 27.7269 31.5799 28.7443 30.8297 29.4944C30.0796 30.2446 29.0622 30.666 28.0013 30.666C26.9404 30.666 25.923 30.2446 25.1729 29.4944C24.4227 28.7443 24.0013 27.7269 24.0013 26.666V18.666C24.0013 17.6051 24.4227 16.5877 25.1729 15.8376C25.923 15.0874 26.9404 14.666 28.0013 14.666V14.666ZM37.3346 26.666C37.3346 31.3727 33.8546 35.2527 29.3346 35.906V39.9993H26.668V35.906C22.148 35.2527 18.668 31.3727 18.668 26.666H21.3346C21.3346 28.4341 22.037 30.1298 23.2873 31.3801C24.5375 32.6303 26.2332 33.3327 28.0013 33.3327C29.7694 33.3327 31.4651 32.6303 32.7153 31.3801C33.9656 30.1298 34.668 28.4341 34.668 26.666H37.3346Z" fill="white"/>
</svg>
